<svg width="806" height="422" viewBox="0 0 806 422" fill="none" xmlns="http://www.w3.org/2000/svg">
<rect width="806" height="422" fill="#F0F0E4"/>
<circle cx="315.399" cy="245.43" r="152.211" fill="#E8E8D8"/>
<circle cx="488.6" cy="245.43" r="152.211" fill="#E8E8D8"/>
<g clip-path="url(#clip0_2494_14995)">
<path d="M529.195 151.574C531.93 156.254 532.608 161.573 530.855 164.979C529.102 168.41 524.942 169.929 521.015 171.865C517.089 173.801 513.396 176.179 509.353 175.591C505.286 175.002 500.845 171.424 500.822 167.797C500.775 164.17 505.146 160.494 508.534 155.642C511.947 150.789 514.424 144.81 518.047 143.829C521.67 142.849 526.461 146.893 529.195 151.574Z" fill="#FA7B6A"/>
<path fill-rule="evenodd" clip-rule="evenodd" d="M506.547 140.462C499.122 140.462 493.103 146.481 493.103 153.906C493.103 161.33 499.122 167.349 506.547 167.349C513.971 167.349 519.99 161.33 519.99 153.906C519.99 146.481 513.971 140.462 506.547 140.462ZM491.521 153.906C491.521 145.608 498.248 138.881 506.547 138.881C514.845 138.881 521.572 145.608 521.572 153.906C521.572 162.204 514.845 168.931 506.547 168.931C498.248 168.931 491.521 162.204 491.521 153.906Z" fill="#1C1C1C"/>
<path fill-rule="evenodd" clip-rule="evenodd" d="M505.666 156.617V145.114H507.248V156.617H505.666Z" fill="#1C1C1C"/>
<path fill-rule="evenodd" clip-rule="evenodd" d="M501.738 132.555L511.174 132.555L511.174 134.137L501.738 134.137L501.738 132.555Z" fill="#1C1C1C"/>
<path fill-rule="evenodd" clip-rule="evenodd" d="M521.066 138.869L516.593 143.342L515.379 142.328L519.852 137.855L521.066 138.869Z" fill="#1C1C1C"/>
</g>
<g clip-path="url(#clip1_2494_14995)">
<path d="M309.653 355.374C305.888 358.732 304.004 362.361 301.003 363.213C298.007 364.089 293.898 362.212 291.756 359.154C289.643 356.115 289.492 351.87 290.377 347.728C291.261 343.586 293.156 339.552 296.946 336.767C300.707 333.964 306.368 332.434 311.328 334.152C316.258 335.85 320.492 340.82 319.791 344.872C319.06 348.905 313.418 352.016 309.653 355.374Z" fill="#FA7B6A"/>
<path fill-rule="evenodd" clip-rule="evenodd" d="M295.867 323.679C287.169 323.679 280.117 330.73 280.117 339.429C280.117 348.127 287.169 355.179 295.867 355.179C304.566 355.179 311.617 348.127 311.617 339.429C311.617 330.73 304.566 323.679 295.867 323.679ZM278.617 339.429C278.617 329.902 286.34 322.179 295.867 322.179C305.394 322.179 313.117 329.902 313.117 339.429C313.117 348.956 305.394 356.679 295.867 356.679C286.34 356.679 278.617 348.956 278.617 339.429Z" fill="#1C1C1C"/>
<path fill-rule="evenodd" clip-rule="evenodd" d="M292.859 342.873L303.625 332.158L304.682 333.222L292.856 344.992L287.837 339.966L288.897 338.905L292.859 342.873Z" fill="#1C1C1C"/>
</g>
<path fill-rule="evenodd" clip-rule="evenodd" d="M402 370.621C441.646 343.144 467.611 297.319 467.611 245.429C467.611 193.54 441.646 147.715 402 120.238C362.354 147.715 336.389 193.54 336.389 245.429C336.389 297.319 362.354 343.144 402 370.621Z" fill="#F0F0E4"/>
<path d="M259.16 69.71C258.792 69.71 258.792 69.296 259.16 69.296H259.988C262.242 69.296 262.472 69.112 262.472 57.796V38.2H260.586C255.664 38.2 252.812 42.018 252.214 47.998L251.938 50.62C251.892 50.896 251.432 50.942 251.478 50.62L251.754 47.998C252.214 43.03 252.03 38.2 252.306 38.062C252.582 37.924 254.744 37.74 257.918 37.74C259.068 37.74 263.346 37.832 265.37 37.832C267.394 37.832 268.13 37.74 272.776 37.74C275.95 37.74 278.158 37.924 278.434 38.062C278.71 38.2 278.48 42.892 278.848 47.86L279.032 50.482C279.078 50.804 278.664 50.758 278.618 50.482L278.342 47.86C277.744 41.88 275.03 38.2 270.108 38.154H268.222V57.796C268.222 69.112 268.498 69.296 270.752 69.296H271.58C271.948 69.296 271.948 69.71 271.58 69.71C270.292 69.71 266.06 69.572 265.416 69.572C264.726 69.572 260.448 69.71 259.16 69.71ZM290.613 70.17C283.575 70.17 279.067 65.754 279.067 59.13C279.067 52.506 285.461 46.25 292.821 46.25C299.123 46.25 301.193 49.424 301.101 52C301.009 53.242 300.595 53.794 297.605 53.794H284.449C284.357 54.484 284.311 55.22 284.311 56.002C284.311 61.982 288.589 65.8 294.615 65.8C299.951 65.8 303.631 62.12 305.563 55.864C305.655 55.496 305.977 55.542 305.839 55.956C304.459 60.602 301.515 65.478 297.835 67.962C295.673 69.388 293.465 70.17 290.613 70.17ZM291.027 47.032C287.669 47.032 285.185 49.378 284.495 53.518C288.037 53.472 290.567 53.38 292.775 53.288C293.649 53.196 294.385 52.92 294.615 52.736C295.075 52.368 295.259 51.724 295.259 50.942C295.259 49.148 294.063 47.032 291.027 47.032ZM303.179 69.71C302.811 69.71 302.811 69.296 303.179 69.296C305.019 69.296 305.571 69.204 305.571 64.236V53.242C305.571 51.908 304.513 50.712 303.455 49.746C303.317 49.608 303.363 49.516 303.455 49.47C304.283 49.148 308.147 47.124 309.021 46.342C309.113 46.25 309.159 46.25 309.297 46.388C310.171 47.216 311.229 50.16 311.229 53.15V54.208C311.689 51.218 312.701 49.424 313.805 48.274C314.817 47.032 316.105 46.25 318.083 46.25C319.371 46.25 320.521 46.618 320.521 47.446C320.521 48.458 319.049 51.494 317.393 51.494H315.139C313.575 51.494 312.655 51.678 312.103 52.368C311.413 53.334 311.275 55.082 311.275 58.118V69.296H314.541C314.909 69.296 314.909 69.71 314.541 69.71C314.173 69.71 309.619 69.618 308.883 69.618C308.193 69.618 304.513 69.71 303.179 69.71ZM321.149 69.71C320.781 69.71 320.781 69.296 321.149 69.296C322.943 69.296 323.357 68.882 323.357 64.236V53.242C323.357 51.908 322.299 50.712 321.241 49.746C321.103 49.608 321.149 49.516 321.241 49.47C322.069 49.148 326.071 47.124 326.945 46.342C327.037 46.25 327.083 46.25 327.221 46.388C328.095 47.216 329.061 49.47 329.061 51.448C331.223 48.504 333.845 46.25 337.387 46.25C340.699 46.25 343.413 47.814 344.287 51.448C346.449 48.55 349.117 46.25 352.659 46.25C357.121 46.25 359.927 48.918 359.927 55.542V66.03C359.927 69.066 360.341 69.342 362.089 69.296C362.457 69.296 362.457 69.71 362.089 69.71C360.709 69.71 357.535 69.618 355.787 69.618C355.097 69.618 352.889 69.71 351.555 69.71C351.187 69.71 351.187 69.296 351.555 69.296C353.901 69.296 354.223 69.066 354.223 64.696V55.358C354.177 50.39 352.383 48.504 349.761 48.504C347.277 48.504 345.943 49.792 344.379 51.954V66.03C344.379 69.204 344.977 69.342 346.771 69.296C347.139 69.296 347.139 69.71 346.771 69.71C346.403 69.71 341.159 69.618 340.423 69.618C339.733 69.618 337.571 69.71 336.237 69.71C335.869 69.71 335.869 69.296 336.237 69.296C338.491 69.296 338.767 69.066 338.767 64.696L338.721 55.358C338.721 50.39 337.157 48.504 334.489 48.504C332.327 48.504 330.901 49.516 329.107 51.954V69.296H331.637C332.005 69.296 332.005 69.71 331.637 69.71C331.269 69.71 326.439 69.618 325.703 69.618C325.013 69.618 322.483 69.71 321.149 69.71ZM384.477 69.848C384.109 69.848 383.971 69.756 383.787 69.434L376.197 52.92C373.713 47.446 372.885 47.124 371.459 47.124C371.091 47.124 371.091 46.71 371.459 46.71C371.781 46.71 374.955 46.802 375.691 46.802C376.381 46.802 381.855 46.756 383.051 46.756C383.465 46.756 383.465 47.124 383.051 47.124C380.245 47.124 380.061 47.63 381.855 51.632L387.421 64.236L391.009 55.864C393.263 50.712 392.711 47.124 388.709 47.17C388.295 47.17 388.295 46.756 388.709 46.756C389.951 46.756 392.941 46.802 393.539 46.802C394.183 46.802 397.679 46.71 398.001 46.71C398.369 46.71 398.369 47.124 398.001 47.124C396.161 47.124 394.229 49.838 391.423 56.14L385.581 69.388C385.397 69.664 385.213 69.848 384.937 69.848H384.477ZM406.046 70.17C401.308 70.17 399.744 69.342 397.904 68.836C397.674 68.79 397.582 68.606 397.582 68.192C397.582 67.502 397.996 63.96 397.996 60.234C397.996 59.912 398.272 59.82 398.272 60.188C398.456 62.764 399.192 65.202 400.664 66.95C402.044 68.698 404.068 69.802 406.552 69.802C409.726 69.802 411.612 68.146 411.612 65.524C411.612 62.672 408.254 61.614 404.85 60.464C401.124 59.222 397.306 57.796 397.306 53.886C397.306 48.918 402.32 46.25 406.782 46.25C410.278 46.25 412.164 46.526 414.234 46.986C414.51 47.078 414.602 47.17 414.602 47.354C414.602 48.642 414.418 52.782 414.418 55.128C414.418 55.496 414.096 55.496 414.05 55.128C413.912 52.828 413.222 50.804 412.072 49.332C410.692 47.584 408.714 46.664 406.184 46.664C403.01 46.664 401.124 48.044 401.124 50.022C401.124 52.966 404.39 54.024 407.886 55.266C411.658 56.508 415.66 57.934 415.66 62.12C415.66 66.536 411.796 70.17 406.046 70.17ZM437.415 69.848C437.093 69.848 436.909 69.756 436.771 69.434L430.561 52.966C428.491 47.446 427.801 47.124 426.191 47.124C425.915 47.124 425.915 46.71 426.145 46.71C426.467 46.71 429.549 46.802 430.285 46.802C430.929 46.802 436.541 46.756 437.737 46.756C438.059 46.756 438.059 47.124 437.691 47.124C435.115 47.124 434.701 47.492 436.173 51.632L440.543 63.546L445.235 52.736C445.281 52.322 445.281 51.954 445.281 51.54C445.235 50.896 445.097 50.206 444.821 49.608C444.223 48.182 443.073 47.17 441.555 47.17C441.187 47.17 441.187 46.756 441.555 46.756C442.797 46.756 446.937 46.802 447.535 46.802C448.225 46.802 452.503 46.756 453.101 46.756C453.469 46.756 453.469 47.124 453.055 47.124C450.479 47.124 450.157 47.492 451.767 51.632L456.367 63.546L459.587 55.864C461.703 50.62 460.599 47.124 457.011 47.17C456.643 47.17 456.643 46.756 456.965 46.756C458.207 46.756 461.197 46.802 461.749 46.802C462.439 46.802 466.073 46.71 466.395 46.71C466.763 46.71 466.763 47.124 466.441 47.124C464.417 47.124 462.715 49.654 459.955 56.14L454.343 69.388C454.205 69.664 454.113 69.848 453.837 69.848H453.469C453.147 69.848 452.963 69.756 452.825 69.434L445.879 52.23L438.473 69.388C438.335 69.664 438.105 69.848 437.829 69.848H437.415ZM465.435 69.71C465.067 69.71 465.067 69.296 465.435 69.296C467.413 69.296 467.689 68.744 467.689 64.236V38.936C467.689 34.98 466.999 34.934 464.699 35.348C464.331 35.394 464.331 34.98 464.699 34.934C466.999 34.52 471.001 33.186 472.565 32.312C472.703 32.22 473.393 32.404 473.393 32.634V51.31C475.601 48.458 478.269 46.25 481.765 46.25C486.273 46.25 489.079 48.918 489.079 55.542V66.03C489.079 69.204 489.723 69.342 491.287 69.296C491.655 69.296 491.655 69.71 491.287 69.71C490.919 69.71 485.675 69.618 484.939 69.618C484.249 69.618 482.317 69.71 480.983 69.71C480.615 69.71 480.615 69.296 480.983 69.296C482.915 69.296 483.375 69.066 483.375 64.696V55.358C483.329 50.39 481.489 48.504 478.867 48.504C476.751 48.504 475.187 49.516 473.393 51.908V69.296H476.153C476.521 69.296 476.521 69.71 476.153 69.71C475.187 69.71 471.875 69.618 471.185 69.618C470.495 69.618 466.769 69.71 465.435 69.71ZM505.31 70.17C498.226 70.17 493.212 65.616 493.212 58.67C493.212 52.046 498.364 46.25 506.046 46.25C513.13 46.25 518.052 50.804 518.052 57.888C518.052 63.822 512.854 70.17 505.31 70.17ZM506.092 69.664C510.232 69.664 511.704 65.432 511.704 58.624C511.704 52.874 509.818 46.71 505.494 46.71C500.894 46.71 499.744 51.172 499.744 57.888C499.744 63.546 501.538 69.664 506.092 69.664ZM520.105 69.71C519.737 69.71 519.737 69.296 520.105 69.296C522.083 69.296 522.359 68.744 522.359 64.236V38.936C522.359 34.98 521.669 34.934 519.369 35.348C519.001 35.394 519.001 34.98 519.369 34.934C521.669 34.52 525.671 33.186 527.235 32.312C527.373 32.22 528.063 32.404 528.063 32.634V64.236C528.063 69.02 528.477 69.296 530.639 69.296C530.961 69.296 530.961 69.71 530.639 69.71C529.305 69.71 526.545 69.618 525.855 69.618C525.165 69.618 521.439 69.71 520.105 69.71ZM543.703 70.17C536.665 70.17 532.157 65.754 532.157 59.13C532.157 52.506 538.551 46.25 545.911 46.25C552.213 46.25 554.283 49.424 554.191 52C554.099 53.242 553.685 53.794 550.695 53.794H537.539C537.447 54.484 537.401 55.22 537.401 56.002C537.401 61.982 541.679 65.8 547.705 65.8C553.041 65.8 556.721 62.12 558.653 55.864C558.745 55.496 559.067 55.542 558.929 55.956C557.549 60.602 554.605 65.478 550.925 67.962C548.763 69.388 546.555 70.17 543.703 70.17ZM544.117 47.032C540.759 47.032 538.275 49.378 537.585 53.518C541.127 53.472 543.657 53.38 545.865 53.288C546.739 53.196 547.475 52.92 547.705 52.736C548.165 52.368 548.349 51.724 548.349 50.942C548.349 49.148 547.153 47.032 544.117 47.032Z" fill="#1C1C1C"/>
<path d="M385.537 222.881H388.008V232.79C388.008 234.518 388.446 235.087 389.868 235.087C390.043 235.087 390.568 235.065 390.699 235.043V237.471C390.327 237.515 389.671 237.559 389.277 237.559C386.63 237.559 385.537 235.94 385.537 232.878V222.881ZM394.958 224.762C393.952 224.762 393.252 224.062 393.252 223.1C393.252 222.05 393.952 221.393 394.936 221.393C395.92 221.393 396.62 222.093 396.62 223.056C396.62 224.106 395.92 224.762 394.958 224.762ZM396.227 237.428H393.755V226.49H396.227V237.428ZM401.25 226.49C401.25 223.45 402.737 222.509 406.062 222.443V224.587C404.443 224.675 403.897 225.112 403.765 226.49H405.297V228.918H403.722V237.428H401.25V228.918H399.718V226.49H401.25ZM413.602 235.634C414.674 235.634 416.315 235.35 417.015 233.95C417.627 234.3 418.218 234.65 418.83 234.978C417.912 237.034 415.702 237.865 413.624 237.865C410.124 237.865 407.783 235.568 407.783 232.068C407.783 228.459 410.08 226.162 413.558 226.162C416.774 226.162 419.246 228.328 419.312 231.434C419.268 232.046 419.093 232.571 419.049 232.768L410.255 232.746C410.562 234.475 411.852 235.634 413.602 235.634ZM413.558 228.415C411.918 228.415 410.671 229.4 410.321 230.953H416.949C416.796 229.334 415.527 228.415 413.558 228.415ZM345.739 253.762C344.733 253.762 344.033 253.062 344.033 252.1C344.033 251.05 344.733 250.393 345.717 250.393C346.702 250.393 347.402 251.093 347.402 252.056C347.402 253.106 346.702 253.762 345.739 253.762ZM347.008 266.428H344.536V255.49H347.008V266.428ZM354.043 257.459C355.268 255.84 356.975 255.25 358.615 255.25C361 255.25 362.728 256.912 362.728 259.471V266.428H360.212V259.821C360.212 258.378 359.097 257.59 357.85 257.59C356.384 257.59 354.722 258.487 354.043 260.521V266.428H351.572V255.49H353.934L354.043 257.459ZM376.661 258.159C376.048 258.421 375.436 258.684 374.823 258.968C374.298 257.656 372.745 257.175 371.301 257.175C369.989 257.175 368.72 257.656 368.72 258.421C368.72 260.937 376.792 258.443 376.792 263.168C376.792 265.684 374.233 266.865 371.826 266.865C369.705 266.865 366.751 266.231 365.833 263.628L367.823 262.731C368.414 264.109 370.383 264.787 371.958 264.787C373.226 264.787 374.32 264.35 374.32 263.321C374.32 260.85 366.27 263.3 366.27 258.575C366.27 256.059 369.048 255.162 371.345 255.162C373.708 255.162 375.917 256.125 376.661 258.159ZM388.7 264.503C387.475 266.1 385.747 266.668 384.128 266.668C381.744 266.668 380.038 265.006 380.038 262.446V255.49H382.532V262.118C382.532 263.562 383.647 264.35 384.894 264.35C386.382 264.35 388.022 263.453 388.722 261.418V255.49H391.194V266.428H388.81L388.7 264.503ZM402.985 257.743C401.191 257.743 398.238 258.837 398.238 260.85V266.428H395.766V255.49H397.91C397.932 255.928 398.063 257.306 398.085 257.743C399.222 256.212 401.453 255.228 402.985 255.228V257.743ZM405.079 261.003C405.079 257.131 407.464 255.228 410.176 255.228C411.685 255.228 413.064 255.818 414.004 256.868C414.07 256.409 414.135 255.95 414.179 255.49H416.498V266.428H414.179L414.026 265.115C413.151 266.209 411.86 266.756 410.439 266.756C407.639 266.756 405.079 264.634 405.079 261.003ZM407.595 261.156C407.595 263.19 408.929 264.481 410.898 264.481C413.02 264.481 414.026 262.95 414.026 260.981C414.026 259.078 413.107 257.568 410.92 257.568C408.907 257.568 407.595 258.99 407.595 261.156ZM423.544 257.459C424.769 255.84 426.476 255.25 428.116 255.25C430.501 255.25 432.229 256.912 432.229 259.471V266.428H429.713V259.821C429.713 258.378 428.598 257.59 427.351 257.59C425.885 257.59 424.223 258.487 423.544 260.521V266.428H421.073V255.49H423.435L423.544 257.459ZM446.752 263.825C445.834 265.881 443.734 266.865 441.524 266.865C438.002 266.865 435.509 264.568 435.509 261.068C435.509 257.7 437.74 255.162 441.218 255.162C443.559 255.162 445.834 256.103 446.599 258.859C445.877 259.143 445.134 259.406 444.412 259.668C443.996 258.159 442.727 257.525 441.306 257.525C439.534 257.525 438.024 258.706 438.024 260.915C438.024 263.059 439.249 264.525 441.502 264.525C442.706 264.525 444.149 264 444.74 262.906L446.752 263.825ZM454.843 264.634C455.915 264.634 457.556 264.35 458.256 262.95C458.868 263.3 459.459 263.65 460.072 263.978C459.153 266.034 456.943 266.865 454.865 266.865C451.365 266.865 449.025 264.568 449.025 261.068C449.025 257.459 451.322 255.162 454.8 255.162C458.015 255.162 460.487 257.328 460.553 260.434C460.509 261.046 460.334 261.571 460.29 261.768L451.497 261.746C451.803 263.475 453.093 264.634 454.843 264.634ZM454.8 257.415C453.159 257.415 451.912 258.4 451.562 259.953H458.19C458.037 258.334 456.768 257.415 454.8 257.415Z" fill="#1C1C1C"/>
<path d="M54.994 145.941V134.972H64.792V136.308H56.3466V139.574H63.4229V140.943H56.3466V145.941H54.994ZM68.0106 136.127C67.4002 136.127 66.9879 135.715 66.9879 135.137C66.9879 134.494 67.4002 134.098 67.9941 134.098C68.5879 134.098 69.0167 134.527 69.0167 135.104C69.0167 135.748 68.5879 136.127 68.0106 136.127ZM67.3178 145.941V137.694H68.6704V145.941H67.3178ZM72.6763 137.694L75.6454 140.861L78.6145 137.694H80.3134L76.4866 141.801L80.3134 145.941H78.631L75.6454 142.741L72.6598 145.941H70.9773L74.8041 141.801L70.9773 137.694H72.6763ZM85.964 145.051C87.0692 145.051 88.3393 144.638 88.9001 143.484L89.9393 143.979C89.2795 145.562 87.663 146.271 85.9805 146.271C83.3248 146.271 81.5599 144.539 81.5599 141.9C81.5599 139.179 83.2918 137.447 85.931 137.447C88.3887 137.447 90.2032 139.047 90.2857 141.422L90.1207 142.329C89.131 142.329 84.2156 142.296 82.9125 142.296C83.0939 143.946 84.2815 145.051 85.964 145.051ZM85.931 138.684C84.298 138.684 83.1434 139.69 82.9454 141.273H88.9991C88.9991 139.64 87.6795 138.684 85.931 138.684ZM92.4349 141.867C92.4349 139.014 94.2163 137.48 96.4596 137.48C97.8452 137.48 99.0493 138.057 99.7091 139.03V134.972H101.062V145.941H99.7751C99.7751 145.546 99.7421 145.133 99.7091 144.671C99.0328 145.694 97.9277 146.222 96.6081 146.222C94.3153 146.222 92.4349 144.572 92.4349 141.867ZM93.8204 141.95C93.8204 143.781 95.0246 144.968 96.839 144.968C98.307 144.968 99.3297 144.143 99.6761 142.89C99.7421 142.214 99.7421 141.521 99.6761 140.779C99.3462 139.574 98.307 138.766 96.839 138.766C95.0081 138.766 93.8204 140.003 93.8204 141.95ZM113.796 145.051C114.901 145.051 116.171 144.638 116.732 143.484L117.771 143.979C117.111 145.562 115.495 146.271 113.812 146.271C111.156 146.271 109.309 144.539 109.309 141.9C109.309 139.36 110.975 137.447 113.565 137.447C115.33 137.447 116.814 138.024 117.589 139.855C117.21 140.036 116.814 140.201 116.435 140.366C115.94 139.129 114.917 138.733 113.68 138.733C111.981 138.733 110.695 139.871 110.695 141.818C110.695 143.715 111.849 145.051 113.796 145.051ZM124.058 146.271C121.419 146.271 119.654 144.539 119.654 141.9C119.654 139.179 121.386 137.447 124.008 137.447C126.664 137.447 128.445 139.195 128.445 141.818C128.445 144.556 126.697 146.271 124.058 146.271ZM127.06 141.9C127.06 140.02 125.856 138.766 124.008 138.766C122.21 138.766 121.023 139.937 121.023 141.818C121.023 143.715 122.227 144.968 124.058 144.968C125.856 144.968 127.06 143.797 127.06 141.9ZM138.332 137.694H139.751L135.429 145.941H134.027L129.706 137.694H131.091L134.671 144.622H134.786L138.332 137.694ZM145.433 145.051C146.538 145.051 147.808 144.638 148.369 143.484L149.408 143.979C148.748 145.562 147.132 146.271 145.449 146.271C142.794 146.271 141.029 144.539 141.029 141.9C141.029 139.179 142.761 137.447 145.4 137.447C147.857 137.447 149.672 139.047 149.754 141.422L149.589 142.329C148.6 142.329 143.684 142.296 142.381 142.296C142.563 143.946 143.75 145.051 145.433 145.051ZM145.4 138.684C143.767 138.684 142.612 139.69 142.414 141.273H148.468C148.468 139.64 147.148 138.684 145.4 138.684ZM158.089 138.882C156.737 138.882 153.998 139.723 153.998 141.719V145.941H152.646V137.694H153.834C153.867 138.354 153.9 139.014 153.916 139.673C154.939 138.205 156.77 137.496 158.089 137.496V138.882ZM159.685 141.867C159.685 139.014 161.466 137.48 163.71 137.48C165.095 137.48 166.25 138.04 166.943 139.03C166.976 138.585 167.009 138.139 167.025 137.694H168.312V145.941H167.025L166.959 144.688C166.283 145.694 165.161 146.222 163.858 146.222C161.565 146.222 159.685 144.572 159.685 141.867ZM161.07 141.95C161.07 143.781 162.275 144.968 164.089 144.968C165.557 144.968 166.58 144.143 166.926 142.89C166.992 142.214 166.992 141.521 166.926 140.779C166.596 139.574 165.557 138.766 164.089 138.766C162.258 138.766 161.07 140.003 161.07 141.95ZM175.683 149.587C174.165 149.587 172.714 149.092 171.938 147.789C172.301 147.558 172.631 147.31 172.994 147.08C173.505 147.937 174.627 148.35 175.699 148.35C177.86 148.35 178.47 147.195 178.569 144.589C177.893 145.595 176.755 146.123 175.435 146.123C173.159 146.123 171.295 144.523 171.295 141.867C171.295 139.014 173.06 137.48 175.32 137.48C176.705 137.48 177.893 138.057 178.553 139.03C178.586 138.585 178.619 138.139 178.635 137.694H179.922V145.364C179.922 148.284 178.437 149.587 175.683 149.587ZM172.681 141.95C172.681 143.764 173.951 144.886 175.65 144.886C176.986 144.886 178.075 144.176 178.487 142.939C178.619 142.247 178.586 141.521 178.52 140.779C178.19 139.574 177.167 138.766 175.699 138.766C173.868 138.766 172.681 140.003 172.681 141.95ZM187.308 145.051C188.413 145.051 189.683 144.638 190.244 143.484L191.283 143.979C190.623 145.562 189.007 146.271 187.324 146.271C184.669 146.271 182.904 144.539 182.904 141.9C182.904 139.179 184.636 137.447 187.275 137.447C189.732 137.447 191.547 139.047 191.629 141.422L191.464 142.329C190.475 142.329 185.559 142.296 184.256 142.296C184.438 143.946 185.625 145.051 187.308 145.051ZM187.275 138.684C185.642 138.684 184.487 139.69 184.289 141.273H190.343C190.343 139.64 189.023 138.684 187.275 138.684ZM199.802 149.422V137.694H201.072L201.155 139.014C201.815 138.007 202.969 137.513 204.404 137.513C206.598 137.513 208.412 138.997 208.412 141.818C208.412 144.589 206.549 146.222 204.272 146.222C202.92 146.222 201.815 145.677 201.155 144.671V149.422H199.802ZM207.043 141.9C207.043 140.02 205.823 138.766 203.992 138.766C202.524 138.766 201.551 139.558 201.204 140.779C201.138 141.471 201.138 142.181 201.204 142.923C201.567 144.143 202.557 144.968 204.025 144.968C205.839 144.968 207.043 143.797 207.043 141.9ZM215.073 145.051C216.179 145.051 217.449 144.638 218.009 143.484L219.049 143.979C218.389 145.562 216.772 146.271 215.09 146.271C212.434 146.271 210.669 144.539 210.669 141.9C210.669 139.179 212.401 137.447 215.04 137.447C217.498 137.447 219.313 139.047 219.395 141.422L219.23 142.329C218.24 142.329 213.325 142.296 212.022 142.296C212.203 143.946 213.391 145.051 215.073 145.051ZM215.04 138.684C213.407 138.684 212.253 139.69 212.055 141.273H218.108C218.108 139.64 216.789 138.684 215.04 138.684ZM227.73 138.882C226.377 138.882 223.639 139.723 223.639 141.719V145.941H222.287V137.694H223.474C223.507 138.354 223.54 139.014 223.557 139.673C224.579 138.205 226.41 137.496 227.73 137.496V138.882ZM230.761 136.127C230.15 136.127 229.738 135.715 229.738 135.137C229.738 134.494 230.15 134.098 230.744 134.098C231.338 134.098 231.767 134.527 231.767 135.104C231.767 135.748 231.338 136.127 230.761 136.127ZM230.068 145.941V137.694H231.42V145.941H230.068ZM238.808 146.271C236.169 146.271 234.404 144.539 234.404 141.9C234.404 139.179 236.136 137.447 238.758 137.447C241.414 137.447 243.195 139.195 243.195 141.818C243.195 144.556 241.447 146.271 238.808 146.271ZM241.81 141.9C241.81 140.02 240.606 138.766 238.758 138.766C236.96 138.766 235.773 139.937 235.773 141.818C235.773 143.715 236.977 144.968 238.808 144.968C240.606 144.968 241.81 143.797 241.81 141.9ZM245.419 141.867C245.419 139.014 247.201 137.48 249.444 137.48C250.83 137.48 252.034 138.057 252.693 139.03V134.972H254.046V145.941H252.759C252.759 145.546 252.726 145.133 252.693 144.671C252.017 145.694 250.912 146.222 249.592 146.222C247.3 146.222 245.419 144.572 245.419 141.867ZM246.805 141.95C246.805 143.781 248.009 144.968 249.823 144.968C251.291 144.968 252.314 144.143 252.66 142.89C252.726 142.214 252.726 141.521 252.66 140.779C252.331 139.574 251.291 138.766 249.823 138.766C247.992 138.766 246.805 140.003 246.805 141.95ZM131.867 155.746C132.065 155.746 132.395 155.861 132.609 155.861C130.762 158.022 129.838 160.776 129.838 163.515C129.838 166.253 130.762 168.974 132.609 171.086C132.395 171.086 132.065 171.201 131.867 171.201C129.689 169.123 128.617 166.352 128.617 163.564C128.617 160.776 129.689 157.956 131.867 155.746ZM135.807 159.127C135.197 159.127 134.785 158.715 134.785 158.137C134.785 157.494 135.197 157.098 135.791 157.098C136.385 157.098 136.814 157.527 136.814 158.104C136.814 158.748 136.385 159.127 135.807 159.127ZM135.115 168.941V160.694H136.467V168.941H135.115ZM141.248 169.222C140.457 169.222 139.945 168.71 139.945 167.935C139.945 167.094 140.457 166.599 141.232 166.599C142.024 166.599 142.552 167.127 142.552 167.902C142.552 168.727 142.024 169.222 141.248 169.222ZM149.698 168.051C150.804 168.051 152.074 167.638 152.634 166.484L153.674 166.979C153.014 168.562 151.397 169.271 149.715 169.271C147.059 169.271 145.294 167.539 145.294 164.9C145.294 162.179 147.026 160.447 149.665 160.447C152.123 160.447 153.938 162.047 154.02 164.422L153.855 165.329C152.865 165.329 147.95 165.296 146.647 165.296C146.828 166.946 148.016 168.051 149.698 168.051ZM149.665 161.684C148.032 161.684 146.878 162.69 146.68 164.273H152.733C152.733 162.64 151.414 161.684 149.665 161.684ZM157.967 169.222C157.175 169.222 156.664 168.71 156.664 167.935C156.664 167.094 157.175 166.599 157.951 166.599C158.742 166.599 159.27 167.127 159.27 167.902C159.27 168.727 158.742 169.222 157.967 169.222ZM173.463 158.929C171.616 158.929 169.752 159.424 169.257 161.337L168.086 160.875C168.597 158.137 171.204 157.609 173.546 157.609C175.872 157.609 178.494 158.517 178.494 160.809C178.494 162.113 177.439 163.02 176.004 163.416C173.067 164.224 169.191 163.927 169.158 167.605H178.593V168.941H167.624C167.591 168.15 167.575 168.001 167.575 167.853C167.575 164.488 169.735 163.234 172.688 162.657C174.024 162.393 176.878 162.261 176.878 160.892C176.878 159.424 175.096 158.929 173.463 158.929ZM187.063 169.321C183.55 169.321 181.207 166.979 181.207 163.498C181.207 159.869 183.517 157.56 187.014 157.56C190.527 157.56 192.886 159.902 192.886 163.383C192.886 167.012 190.56 169.321 187.063 169.321ZM191.484 163.498C191.484 160.71 189.719 158.863 187.014 158.863C184.342 158.863 182.61 160.595 182.61 163.383C182.61 166.17 184.358 168.018 187.063 168.018C189.735 168.018 191.484 166.302 191.484 163.498ZM208.115 160.694H209.468L203.414 172.422H202.012L203.876 168.826L200.099 160.694H201.55L204.569 167.589H204.585L208.115 160.694ZM214.995 168.051C216.1 168.051 217.371 167.638 217.931 166.484L218.971 166.979C218.311 168.562 216.694 169.271 215.012 169.271C212.356 169.271 210.591 167.539 210.591 164.9C210.591 162.179 212.323 160.447 214.962 160.447C217.42 160.447 219.234 162.047 219.317 164.422L219.152 165.329C218.162 165.329 213.247 165.296 211.944 165.296C212.125 166.946 213.313 168.051 214.995 168.051ZM214.962 161.684C213.329 161.684 212.175 162.69 211.977 164.273H218.03C218.03 162.64 216.711 161.684 214.962 161.684ZM221.466 164.867C221.466 162.014 223.248 160.48 225.491 160.48C226.876 160.48 228.031 161.04 228.724 162.03C228.757 161.585 228.79 161.139 228.806 160.694H230.093V168.941H228.806L228.74 167.688C228.064 168.694 226.942 169.222 225.639 169.222C223.347 169.222 221.466 167.572 221.466 164.867ZM222.852 164.95C222.852 166.781 224.056 167.968 225.87 167.968C227.338 167.968 228.361 167.143 228.707 165.89C228.773 165.214 228.773 164.521 228.707 163.779C228.377 162.574 227.338 161.766 225.87 161.766C224.039 161.766 222.852 163.003 222.852 164.95ZM239.245 161.882C237.893 161.882 235.155 162.723 235.155 164.719V168.941H233.802V160.694H234.99C235.023 161.354 235.056 162.014 235.072 162.673C236.095 161.205 237.926 160.496 239.245 160.496V161.882ZM248.853 166.665C248.853 168.414 247.022 169.288 245.076 169.288C243.196 169.288 241.233 168.48 240.738 166.83C241.117 166.649 241.53 166.5 241.909 166.335C242.272 167.506 243.888 168.133 245.29 168.133C246.462 168.133 247.501 167.688 247.501 166.731C247.501 164.471 241.084 166.302 241.084 162.888C241.084 161.205 243.014 160.43 244.862 160.43C246.643 160.43 248.325 161.156 248.853 162.739L247.781 163.168C247.369 161.997 246.115 161.585 244.878 161.585C243.69 161.585 242.42 161.997 242.42 162.822C242.42 164.884 248.853 163.135 248.853 166.665ZM250.597 155.861C250.795 155.861 251.125 155.746 251.339 155.746C253.517 157.89 254.589 160.694 254.589 163.482C254.589 166.269 253.517 169.057 251.339 171.201C251.125 171.201 250.795 171.086 250.597 171.086C252.445 168.908 253.352 166.154 253.352 163.416C253.352 160.677 252.445 157.956 250.597 155.861Z" fill="black"/>
<g clip-path="url(#clip2_2494_14995)">
<path d="M317.241 245.572C319.976 250.253 320.654 255.571 318.901 258.977C317.148 262.408 312.988 263.927 309.061 265.863C305.135 267.8 301.442 270.177 297.398 269.589C293.332 269 288.891 265.422 288.868 261.795C288.821 258.168 293.191 254.492 296.58 249.64C299.993 244.787 302.47 238.808 306.093 237.828C309.716 236.847 314.507 240.891 317.241 245.572Z" fill="#FA7B6A"/>
<g clip-path="url(#clip3_2494_14995)">
<path d="M318.656 250.546C320.869 255.94 317.692 264.434 312.328 267.847C306.965 271.26 299.414 269.593 293.634 265.424C287.853 261.229 283.844 254.533 285.432 249.973C287.02 245.413 294.18 242.99 301.549 242.938C308.918 242.886 316.468 245.153 318.656 250.546Z" fill="#FA7B6A"/>
<path fill-rule="evenodd" clip-rule="evenodd" d="M307.047 230.936C307.613 230.91 308.174 230.967 308.597 231.143L309.182 231.387L308.057 236.26C309.27 236.931 310.079 237.855 310.679 238.713C310.956 239.108 311.195 239.502 311.402 239.841C311.449 239.918 311.494 239.992 311.538 240.063C311.698 240.323 311.83 240.528 311.949 240.687H314.367C315.333 240.687 316.117 241.469 316.117 242.436V246.678C316.117 247.676 315.314 248.359 314.489 248.494C313.029 248.731 312.39 249.582 311.371 250.981C310.404 252.309 309.194 253.958 306.705 255.33V258.68C306.705 259.646 305.922 260.43 304.955 260.43H300.838C299.871 260.43 299.088 259.646 299.088 258.68V257.549H293.561V258.68C293.561 259.646 292.778 260.43 291.811 260.43H287.693C286.727 260.43 285.943 259.646 285.943 258.68V256.157C285.517 255.753 285.075 255.377 284.616 254.987C284.449 254.845 284.28 254.701 284.108 254.553C283.397 253.94 282.67 253.278 282.025 252.476C280.708 250.837 279.794 248.691 279.794 245.278C279.794 244.951 279.805 244.629 279.828 244.312C278.445 244.525 277.259 244.34 276.346 243.781C275.185 243.069 274.617 241.842 274.617 240.477C274.617 239.001 275.447 238.031 276.475 237.638C277.436 237.272 278.643 237.395 279.398 238.149L279.928 238.68L278.867 239.74L278.337 239.21C278.091 238.964 277.548 238.834 277.01 239.04C276.538 239.22 276.117 239.649 276.117 240.477C276.117 241.416 276.49 242.109 277.13 242.502C277.728 242.868 278.68 243.045 280.036 242.748C281.166 237.032 286.08 233.886 290.746 233.41C295.052 232.97 299.35 233.347 302.19 233.862C302.829 232.518 304.008 231.725 305.146 231.316C305.8 231.08 306.463 230.962 307.047 230.936ZM305.654 232.727C304.636 233.093 303.731 233.791 303.378 234.937L303.178 235.587L302.512 235.451C299.824 234.904 295.356 234.447 290.898 234.902C286.605 235.341 282.239 238.276 281.431 243.473C281.341 244.049 281.294 244.652 281.294 245.278C281.294 248.379 282.109 250.186 283.194 251.536C283.751 252.228 284.393 252.818 285.087 253.417C285.242 253.55 285.4 253.684 285.56 253.821C286.108 254.286 286.682 254.774 287.22 255.305L287.443 255.526V258.68C287.443 258.818 287.555 258.93 287.693 258.93H291.811C291.949 258.93 292.061 258.818 292.061 258.68V256.049H300.588V258.68C300.588 258.818 300.7 258.93 300.838 258.93H304.955C305.093 258.93 305.205 258.818 305.205 258.68V254.42L305.615 254.211C308.056 252.966 309.173 251.452 310.159 250.098C310.181 250.068 310.203 250.037 310.225 250.007C311.187 248.684 312.155 247.354 314.247 247.013C314.365 246.994 314.466 246.938 314.532 246.869C314.594 246.804 314.617 246.739 314.617 246.678V242.436C314.617 242.299 314.506 242.187 314.367 242.187H311.287L311.067 241.962C310.764 241.653 310.5 241.239 310.26 240.849C310.211 240.768 310.161 240.688 310.112 240.606C309.906 240.269 309.697 239.925 309.45 239.573C308.849 238.713 308.079 237.879 306.891 237.354L306.323 237.104L307.401 232.431C307.313 232.429 307.218 232.429 307.114 232.434C306.674 232.454 306.161 232.545 305.654 232.727Z" fill="#1C1C1C"/>
<path fill-rule="evenodd" clip-rule="evenodd" d="M298.929 237.929C296.545 237.693 293.717 237.617 290.897 237.905C290.485 237.947 290.117 237.647 290.075 237.235C290.033 236.823 290.333 236.455 290.745 236.413C293.685 236.112 296.616 236.193 299.077 236.436C299.489 236.477 299.79 236.844 299.749 237.256C299.709 237.669 299.342 237.97 298.929 237.929Z" fill="#1C1C1C"/>
<path d="M307.151 241.299C307.151 241.754 306.778 242.122 306.318 242.122C305.858 242.122 305.485 241.754 305.485 241.299C305.485 240.844 305.858 240.475 306.318 240.475C306.778 240.475 307.151 240.844 307.151 241.299Z" fill="#1C1C1C"/>
</g>
</g>
<path d="M130.122 238.621V239.94H120.885V228.971H122.237V238.621H130.122ZM136.23 240.27C133.59 240.27 131.826 238.538 131.826 235.899C131.826 233.178 133.557 231.446 136.18 231.446C138.836 231.446 140.617 233.194 140.617 235.817C140.617 238.555 138.869 240.27 136.23 240.27ZM139.232 235.899C139.232 234.019 138.028 232.765 136.18 232.765C134.382 232.765 133.195 233.936 133.195 235.817C133.195 237.714 134.399 238.967 136.23 238.967C138.028 238.967 139.232 237.796 139.232 235.899ZM146.941 239.94H145.457L142.009 231.693H143.478L146.1 238.621H146.216C147.106 236.312 147.981 234.002 148.855 231.693H150.224C151.098 234.002 151.989 236.312 152.88 238.621H152.995L155.618 231.693H157.086L153.638 239.94H152.154L149.548 233.54L146.941 239.94ZM162.902 239.05C164.007 239.05 165.277 238.637 165.838 237.483L166.877 237.978C166.217 239.561 164.6 240.27 162.918 240.27C160.262 240.27 158.497 238.538 158.497 235.899C158.497 233.178 160.229 231.446 162.869 231.446C165.326 231.446 167.141 233.046 167.223 235.421L167.058 236.328C166.069 236.328 161.153 236.295 159.85 236.295C160.031 237.945 161.219 239.05 162.902 239.05ZM162.869 232.683C161.236 232.683 160.081 233.689 159.883 235.272H165.937C165.937 233.639 164.617 232.683 162.869 232.683ZM175.558 232.881C174.205 232.881 171.467 233.722 171.467 235.718V239.94H170.115V231.693H171.302C171.335 232.353 171.368 233.013 171.385 233.672C172.407 232.204 174.238 231.495 175.558 231.495V232.881ZM184.358 233.441C185.249 232.188 186.519 231.545 187.789 231.545C189.257 231.545 190.362 232.254 190.725 233.59C191.632 232.221 193.084 231.512 194.403 231.512C196.201 231.512 197.438 232.683 197.438 234.613V239.94H196.069V234.794C196.069 233.491 195.178 232.798 194.024 232.798C192.803 232.798 190.89 234.085 190.89 235.619V239.94H189.521V234.794C189.521 233.491 188.647 232.798 187.475 232.798C186.271 232.798 184.968 233.656 184.358 235.206V239.94H183.005V231.693H184.358V233.441ZM204.636 240.27C201.997 240.27 200.232 238.538 200.232 235.899C200.232 233.178 201.964 231.446 204.586 231.446C207.242 231.446 209.024 233.194 209.024 235.817C209.024 238.555 207.275 240.27 204.636 240.27ZM207.638 235.899C207.638 234.019 206.434 232.765 204.586 232.765C202.788 232.765 201.601 233.936 201.601 235.817C201.601 237.714 202.805 238.967 204.636 238.967C206.434 238.967 207.638 237.796 207.638 235.899ZM213.342 233.458C214.381 231.957 215.816 231.512 217.186 231.512C218.983 231.512 220.402 232.765 220.402 234.695V239.94H219.033V234.877C219.033 233.573 217.961 232.798 216.79 232.798C215.503 232.798 214.101 233.458 213.342 235.173V239.94H211.99V231.693H213.342V233.458ZM224.028 231.693V228.971H225.38V231.693H227.063V233.029H225.38V236.46C225.38 238.093 225.826 238.67 227.294 238.67H227.558V239.99C227.376 240.006 227.079 240.023 226.865 240.023C224.787 240.023 224.028 238.72 224.028 236.51V233.029H222.873V231.693H224.028ZM231.514 233.458C232.553 231.973 233.988 231.512 235.357 231.512C237.155 231.512 238.574 232.765 238.574 234.695V239.94H237.205V234.91C237.205 233.606 236.116 232.815 234.945 232.815C233.642 232.815 232.273 233.474 231.514 235.173V239.94H230.162V228.971H231.514V233.458ZM241.854 228.971H243.207V236.46C243.207 238.093 243.652 238.67 245.12 238.67H245.384V239.99C245.203 240.006 244.906 240.023 244.691 240.023C242.613 240.023 241.854 238.72 241.854 236.51V228.971ZM254.225 231.693H255.577L249.524 243.421H248.122L249.986 239.825L246.208 231.693H247.66L250.678 238.588H250.695L254.225 231.693ZM164.443 266.421V254.693H165.713L165.795 256.013C166.455 255.006 167.61 254.512 169.045 254.512C171.239 254.512 173.053 255.996 173.053 258.817C173.053 261.588 171.189 263.221 168.913 263.221C167.56 263.221 166.455 262.677 165.795 261.67V266.421H164.443ZM171.684 258.899C171.684 257.019 170.463 255.765 168.632 255.765C167.164 255.765 166.191 256.557 165.845 257.778C165.779 258.47 165.779 259.18 165.845 259.922C166.208 261.142 167.197 261.967 168.665 261.967C170.48 261.967 171.684 260.796 171.684 258.899ZM181.495 255.881C180.143 255.881 177.405 256.722 177.405 258.718V262.94H176.052V254.693H177.24C177.273 255.353 177.306 256.013 177.322 256.672C178.345 255.204 180.176 254.495 181.495 254.495V255.881ZM187.495 262.05C188.6 262.05 189.871 261.637 190.431 260.483L191.471 260.978C190.811 262.561 189.194 263.27 187.512 263.27C184.856 263.27 183.091 261.538 183.091 258.899C183.091 256.178 184.823 254.446 187.462 254.446C189.92 254.446 191.734 256.046 191.817 258.421L191.652 259.328C190.662 259.328 185.747 259.295 184.444 259.295C184.625 260.945 185.813 262.05 187.495 262.05ZM187.462 255.683C185.829 255.683 184.675 256.689 184.477 258.272H190.53C190.53 256.639 189.211 255.683 187.462 255.683ZM196.061 256.441C196.952 255.188 198.222 254.545 199.492 254.545C200.96 254.545 202.065 255.254 202.428 256.59C203.335 255.221 204.787 254.512 206.106 254.512C207.904 254.512 209.141 255.683 209.141 257.613V262.94H207.772V257.794C207.772 256.491 206.882 255.798 205.727 255.798C204.506 255.798 202.593 257.085 202.593 258.619V262.94H201.224V257.794C201.224 256.491 200.35 255.798 199.179 255.798C197.974 255.798 196.671 256.656 196.061 258.206V262.94H194.708V254.693H196.061V256.441ZM213.37 253.126C212.76 253.126 212.347 252.714 212.347 252.136C212.347 251.493 212.76 251.097 213.353 251.097C213.947 251.097 214.376 251.526 214.376 252.103C214.376 252.747 213.947 253.126 213.37 253.126ZM212.677 262.94V254.693H214.03V262.94H212.677ZM224.568 261.192C223.528 262.677 222.093 263.122 220.741 263.122C218.943 263.122 217.524 261.868 217.524 259.938V254.693H218.893V259.773C218.893 261.077 219.966 261.852 221.12 261.852C222.423 261.852 223.809 261.192 224.584 259.477V254.693H225.937V262.94H224.568V261.192ZM230.998 256.441C231.889 255.188 233.159 254.545 234.429 254.545C235.897 254.545 237.003 255.254 237.365 256.59C238.273 255.221 239.724 254.512 241.044 254.512C242.842 254.512 244.079 255.683 244.079 257.613V262.94H242.71V257.794C242.71 256.491 241.819 255.798 240.664 255.798C239.444 255.798 237.53 257.085 237.53 258.619V262.94H236.161V257.794C236.161 256.491 235.287 255.798 234.116 255.798C232.912 255.798 231.609 256.656 230.998 258.206V262.94H229.646V254.693H230.998V256.441ZM254.806 260.664C254.806 262.413 252.975 263.287 251.029 263.287C249.149 263.287 247.186 262.479 246.691 260.829C247.07 260.648 247.483 260.499 247.862 260.334C248.225 261.505 249.841 262.132 251.244 262.132C252.415 262.132 253.454 261.687 253.454 260.73C253.454 258.47 247.037 260.301 247.037 256.887C247.037 255.204 248.967 254.429 250.815 254.429C252.596 254.429 254.279 255.155 254.806 256.738L253.734 257.167C253.322 255.996 252.068 255.584 250.831 255.584C249.644 255.584 248.373 255.996 248.373 256.821C248.373 258.883 254.806 257.134 254.806 260.664Z" fill="black"/>
<path d="M76.5249 334.101C74.1827 334.101 71.3455 333.573 70.8342 330.835L72.0053 330.373C72.5002 332.286 74.5455 332.699 76.393 332.699C78.0095 332.699 80.5332 332.237 80.5332 330.357C80.5332 327.074 70.9002 330.439 70.9002 325.886C70.9002 323.148 74.2156 322.357 76.327 322.357C78.6693 322.357 81.2754 322.884 81.7868 325.622L80.6156 326.084C80.1208 324.171 78.0919 323.66 76.2445 323.66C74.5785 323.66 72.4672 324.171 72.4672 325.771C72.4672 328.658 82.0012 325.672 82.0012 330.258C82.0012 333.21 78.9332 334.101 76.5249 334.101ZM85.2622 325.441V322.719H86.6148V325.441H88.2973V326.777H86.6148V330.208C86.6148 331.841 87.0602 332.418 88.5282 332.418H88.7921V333.738C88.6107 333.754 88.3138 333.771 88.0993 333.771C86.021 333.771 85.2622 332.468 85.2622 330.258V326.777H84.1076V325.441H85.2622ZM97.1673 326.629C95.8147 326.629 93.0766 327.47 93.0766 329.466V333.688H91.724V325.441H92.9117C92.9446 326.101 92.9776 326.761 92.9941 327.42C94.0168 325.952 95.8477 325.243 97.1673 325.243V326.629ZM98.763 329.614C98.763 326.761 100.544 325.227 102.788 325.227C104.173 325.227 105.328 325.787 106.021 326.777C106.054 326.332 106.087 325.886 106.103 325.441H107.39V333.688H106.103L106.037 332.435C105.361 333.441 104.239 333.969 102.936 333.969C100.643 333.969 98.763 332.319 98.763 329.614ZM100.149 329.697C100.149 331.528 101.353 332.715 103.167 332.715C104.635 332.715 105.658 331.891 106.004 330.637C106.07 329.961 106.07 329.268 106.004 328.526C105.674 327.321 104.635 326.513 103.167 326.513C101.336 326.513 100.149 327.75 100.149 329.697ZM111.792 323.874C111.181 323.874 110.769 323.462 110.769 322.884C110.769 322.241 111.181 321.845 111.775 321.845C112.369 321.845 112.798 322.274 112.798 322.851C112.798 323.495 112.369 323.874 111.792 323.874ZM111.099 333.688V325.441H112.452V333.688H111.099ZM119.839 337.334C118.321 337.334 116.87 336.839 116.095 335.536C116.458 335.305 116.787 335.058 117.15 334.827C117.662 335.684 118.783 336.097 119.856 336.097C122.016 336.097 122.627 334.942 122.726 332.336C122.049 333.342 120.911 333.87 119.592 333.87C117.315 333.87 115.451 332.27 115.451 329.614C115.451 326.761 117.216 325.227 119.476 325.227C120.862 325.227 122.049 325.804 122.709 326.777C122.742 326.332 122.775 325.886 122.792 325.441H124.078V333.111C124.078 336.031 122.594 337.334 119.839 337.334ZM116.837 329.697C116.837 331.511 118.107 332.633 119.806 332.633C121.142 332.633 122.231 331.924 122.643 330.686C122.775 329.994 122.742 329.268 122.676 328.526C122.346 327.321 121.324 326.513 119.856 326.513C118.025 326.513 116.837 327.75 116.837 329.697ZM129.155 327.206C130.194 325.721 131.629 325.26 132.998 325.26C134.796 325.26 136.215 326.513 136.215 328.443V333.688H134.845V328.658C134.845 327.354 133.757 326.563 132.586 326.563C131.283 326.563 129.913 327.222 129.155 328.921V333.688H127.802V322.719H129.155V327.206ZM139.825 325.441V322.719H141.177V325.441H142.86V326.777H141.177V330.208C141.177 331.841 141.623 332.418 143.091 332.418H143.355V333.738C143.173 333.754 142.876 333.771 142.662 333.771C140.583 333.771 139.825 332.468 139.825 330.258V326.777H138.67V325.441H139.825ZM146.239 325.441C146.239 323.28 147.212 322.505 149.488 322.39V323.577C148.169 323.693 147.69 324.22 147.608 325.441H148.812V326.777H147.591V333.688H146.239V326.777H145.084V325.441H146.239ZM155.277 334.018C152.637 334.018 150.872 332.286 150.872 329.647C150.872 326.926 152.604 325.194 155.227 325.194C157.883 325.194 159.664 326.942 159.664 329.565C159.664 332.303 157.916 334.018 155.277 334.018ZM158.279 329.647C158.279 327.767 157.074 326.513 155.227 326.513C153.429 326.513 152.241 327.684 152.241 329.565C152.241 331.462 153.446 332.715 155.277 332.715C157.074 332.715 158.279 331.544 158.279 329.647ZM168.074 326.629C166.721 326.629 163.983 327.47 163.983 329.466V333.688H162.63V325.441H163.818C163.851 326.101 163.884 326.761 163.9 327.42C164.923 325.952 166.754 325.243 168.074 325.243V326.629ZM174.098 333.688H172.613L169.166 325.441H170.634L173.256 332.369H173.372C174.263 330.06 175.137 327.75 176.011 325.441H177.38C178.254 327.75 179.145 330.06 180.036 332.369H180.151L182.774 325.441H184.242L180.795 333.688H179.31L176.704 327.288L174.098 333.688ZM185.654 329.614C185.654 326.761 187.435 325.227 189.678 325.227C191.064 325.227 192.219 325.787 192.911 326.777C192.944 326.332 192.977 325.886 192.994 325.441H194.28V333.688H192.994L192.928 332.435C192.252 333.441 191.13 333.969 189.827 333.969C187.534 333.969 185.654 332.319 185.654 329.614ZM187.039 329.697C187.039 331.528 188.243 332.715 190.058 332.715C191.526 332.715 192.548 331.891 192.895 330.637C192.961 329.961 192.961 329.268 192.895 328.526C192.565 327.321 191.526 326.513 190.058 326.513C188.227 326.513 187.039 327.75 187.039 329.697ZM203.433 326.629C202.08 326.629 199.342 327.47 199.342 329.466V333.688H197.99V325.441H199.177C199.21 326.101 199.243 326.761 199.26 327.42C200.282 325.952 202.113 325.243 203.433 325.243V326.629ZM205.029 329.614C205.029 326.761 206.81 325.227 209.053 325.227C210.439 325.227 211.643 325.804 212.303 326.777V322.719H213.655V333.688H212.369C212.369 333.293 212.336 332.88 212.303 332.418C211.627 333.441 210.521 333.969 209.202 333.969C206.909 333.969 205.029 332.319 205.029 329.614ZM206.414 329.697C206.414 331.528 207.618 332.715 209.433 332.715C210.901 332.715 211.923 331.891 212.27 330.637C212.336 329.961 212.336 329.268 212.27 328.526C211.94 327.321 210.901 326.513 209.433 326.513C207.602 326.513 206.414 327.75 206.414 329.697ZM221.919 329.614C221.919 326.761 223.701 325.227 225.944 325.227C227.33 325.227 228.484 325.787 229.177 326.777C229.21 326.332 229.243 325.886 229.259 325.441H230.546V333.688H229.259L229.193 332.435C228.517 333.441 227.396 333.969 226.092 333.969C223.8 333.969 221.919 332.319 221.919 329.614ZM223.305 329.697C223.305 331.528 224.509 332.715 226.323 332.715C227.791 332.715 228.814 331.891 229.16 330.637C229.226 329.961 229.226 329.268 229.16 328.526C228.831 327.321 227.791 326.513 226.323 326.513C224.492 326.513 223.305 327.75 223.305 329.697ZM235.608 327.206C236.647 325.705 238.082 325.26 239.451 325.26C241.249 325.26 242.668 326.513 242.668 328.443V333.688H241.299V328.625C241.299 327.321 240.226 326.546 239.055 326.546C237.769 326.546 236.367 327.206 235.608 328.921V333.688H234.255V325.441H235.608V327.206ZM245.419 329.614C245.419 326.761 247.201 325.227 249.444 325.227C250.83 325.227 252.034 325.804 252.693 326.777V322.719H254.046V333.688H252.759C252.759 333.293 252.726 332.88 252.693 332.418C252.017 333.441 250.912 333.969 249.592 333.969C247.3 333.969 245.419 332.319 245.419 329.614ZM246.805 329.697C246.805 331.528 248.009 332.715 249.823 332.715C251.291 332.715 252.314 331.891 252.66 330.637C252.726 329.961 252.726 329.268 252.66 328.526C252.331 327.321 251.291 326.513 249.823 326.513C247.992 326.513 246.805 327.75 246.805 329.697ZM85.3859 355.798C86.491 355.798 87.7611 355.385 88.322 354.231L89.3611 354.726C88.7013 356.309 87.0848 357.018 85.4024 357.018C82.7467 357.018 80.9818 355.286 80.9818 352.647C80.9818 349.926 82.7137 348.194 85.3529 348.194C87.8106 348.194 89.6251 349.794 89.7075 352.169L89.5426 353.076C88.5529 353.076 83.6374 353.043 82.3343 353.043C82.5158 354.693 83.7034 355.798 85.3859 355.798ZM85.3529 349.431C83.7199 349.431 82.5653 350.437 82.3673 352.02H88.4209C88.4209 350.387 87.1013 349.431 85.3529 349.431ZM91.8568 352.614C91.8568 349.761 93.6382 348.227 95.8815 348.227C97.2671 348.227 98.4217 348.787 99.1145 349.777C99.1475 349.332 99.1805 348.886 99.197 348.441H100.484V356.688H99.197L99.131 355.435C98.4547 356.441 97.333 356.969 96.03 356.969C93.7372 356.969 91.8568 355.319 91.8568 352.614ZM93.2423 352.697C93.2423 354.528 94.4464 355.715 96.2609 355.715C97.7289 355.715 98.7516 354.891 99.098 353.637C99.164 352.961 99.164 352.268 99.098 351.526C98.7681 350.321 97.7289 349.513 96.2609 349.513C94.43 349.513 93.2423 350.75 93.2423 352.697ZM111.213 354.412C111.213 356.161 109.382 357.035 107.435 357.035C105.555 357.035 103.592 356.227 103.097 354.577C103.477 354.396 103.889 354.247 104.268 354.082C104.631 355.253 106.248 355.88 107.65 355.88C108.821 355.88 109.86 355.435 109.86 354.478C109.86 352.218 103.444 354.049 103.444 350.635C103.444 348.952 105.373 348.177 107.221 348.177C109.002 348.177 110.685 348.903 111.213 350.486L110.14 350.915C109.728 349.744 108.475 349.332 107.237 349.332C106.05 349.332 104.78 349.744 104.78 350.569C104.78 352.631 111.213 350.882 111.213 354.412ZM120.709 348.441H122.062L116.008 360.169H114.606L116.47 356.573L112.693 348.441H114.144L117.163 355.336H117.179L120.709 348.441ZM129.668 348.441V345.719H131.021V348.441H132.704V349.777H131.021V353.208C131.021 354.841 131.466 355.418 132.934 355.418H133.198V356.738C133.017 356.754 132.72 356.771 132.506 356.771C130.427 356.771 129.668 355.468 129.668 353.258V349.777H128.514V348.441H129.668ZM139.464 357.018C136.825 357.018 135.06 355.286 135.06 352.647C135.06 349.926 136.792 348.194 139.415 348.194C142.07 348.194 143.852 349.942 143.852 352.565C143.852 355.303 142.103 357.018 139.464 357.018ZM142.466 352.647C142.466 350.767 141.262 349.513 139.415 349.513C137.617 349.513 136.429 350.684 136.429 352.565C136.429 354.462 137.633 355.715 139.464 355.715C141.262 355.715 142.466 354.544 142.466 352.647ZM158.911 354.94C157.872 356.425 156.437 356.87 155.085 356.87C153.287 356.87 151.868 355.616 151.868 353.686V348.441H153.237V353.521C153.237 354.825 154.309 355.6 155.464 355.6C156.767 355.6 158.153 354.94 158.928 353.225V348.441H160.28V356.688H158.911V354.94ZM165.342 350.206C166.381 348.705 167.816 348.26 169.186 348.26C170.983 348.26 172.402 349.513 172.402 351.443V356.688H171.033V351.625C171.033 350.321 169.961 349.546 168.79 349.546C167.503 349.546 166.101 350.206 165.342 351.921V356.688H163.99V348.441H165.342V350.206ZM175.154 352.614C175.154 349.761 176.935 348.227 179.178 348.227C180.564 348.227 181.768 348.804 182.428 349.777V345.719H183.78V356.688H182.494C182.494 356.293 182.461 355.88 182.428 355.418C181.752 356.441 180.646 356.969 179.327 356.969C177.034 356.969 175.154 355.319 175.154 352.614ZM176.539 352.697C176.539 354.528 177.743 355.715 179.558 355.715C181.026 355.715 182.048 354.891 182.395 353.637C182.461 352.961 182.461 352.268 182.395 351.526C182.065 350.321 181.026 349.513 179.558 349.513C177.727 349.513 176.539 350.75 176.539 352.697ZM191.167 355.798C192.272 355.798 193.542 355.385 194.103 354.231L195.142 354.726C194.483 356.309 192.866 357.018 191.184 357.018C188.528 357.018 186.763 355.286 186.763 352.647C186.763 349.926 188.495 348.194 191.134 348.194C193.592 348.194 195.406 349.794 195.489 352.169L195.324 353.076C194.334 353.076 189.419 353.043 188.116 353.043C188.297 354.693 189.485 355.798 191.167 355.798ZM191.134 349.431C189.501 349.431 188.347 350.437 188.149 352.02H194.202C194.202 350.387 192.883 349.431 191.134 349.431ZM203.824 349.629C202.471 349.629 199.733 350.47 199.733 352.466V356.688H198.38V348.441H199.568C199.601 349.101 199.634 349.761 199.65 350.42C200.673 348.952 202.504 348.243 203.824 348.243V349.629ZM213.431 354.412C213.431 356.161 211.6 357.035 209.654 357.035C207.774 357.035 205.811 356.227 205.316 354.577C205.695 354.396 206.108 354.247 206.487 354.082C206.85 355.253 208.466 355.88 209.869 355.88C211.04 355.88 212.079 355.435 212.079 354.478C212.079 352.218 205.662 354.049 205.662 350.635C205.662 348.952 207.592 348.177 209.44 348.177C211.221 348.177 212.904 348.903 213.431 350.486L212.359 350.915C211.947 349.744 210.693 349.332 209.456 349.332C208.269 349.332 206.998 349.744 206.998 350.569C206.998 352.631 213.431 350.882 213.431 354.412ZM216.528 348.441V345.719H217.88V348.441H219.563V349.777H217.88V353.208C217.88 354.841 218.326 355.418 219.794 355.418H220.058V356.738C219.876 356.754 219.579 356.771 219.365 356.771C217.287 356.771 216.528 355.468 216.528 353.258V349.777H215.373V348.441H216.528ZM221.919 352.614C221.919 349.761 223.701 348.227 225.944 348.227C227.33 348.227 228.484 348.787 229.177 349.777C229.21 349.332 229.243 348.886 229.259 348.441H230.546V356.688H229.259L229.193 355.435C228.517 356.441 227.396 356.969 226.092 356.969C223.8 356.969 221.919 355.319 221.919 352.614ZM223.305 352.697C223.305 354.528 224.509 355.715 226.323 355.715C227.791 355.715 228.814 354.891 229.16 353.637C229.226 352.961 229.226 352.268 229.16 351.526C228.831 350.321 227.791 349.513 226.323 349.513C224.492 349.513 223.305 350.75 223.305 352.697ZM235.608 350.206C236.647 348.705 238.082 348.26 239.451 348.26C241.249 348.26 242.668 349.513 242.668 351.443V356.688H241.299V351.625C241.299 350.321 240.226 349.546 239.055 349.546C237.769 349.546 236.367 350.206 235.608 351.921V356.688H234.255V348.441H235.608V350.206ZM245.419 352.614C245.419 349.761 247.201 348.227 249.444 348.227C250.83 348.227 252.034 348.804 252.693 349.777V345.719H254.046V356.688H252.759C252.759 356.293 252.726 355.88 252.693 355.418C252.017 356.441 250.912 356.969 249.592 356.969C247.3 356.969 245.419 355.319 245.419 352.614ZM246.805 352.697C246.805 354.528 248.009 355.715 249.823 355.715C251.291 355.715 252.314 354.891 252.66 353.637C252.726 352.961 252.726 352.268 252.66 351.526C252.331 350.321 251.291 349.513 249.823 349.513C247.992 349.513 246.805 350.75 246.805 352.697Z" fill="black"/>
<path d="M555.438 135.979C552.75 135.979 550.803 137.546 550.803 140.35C550.803 143.104 552.799 144.919 555.537 144.919C557.5 144.919 559.43 143.913 559.744 141.735C560.139 141.9 560.502 142.049 560.898 142.197C560.568 145.249 557.83 146.304 555.372 146.304C551.859 146.304 549.352 143.781 549.352 140.35C549.352 136.622 552.024 134.642 555.471 134.642C557.814 134.642 560.42 135.616 560.931 138.354L559.76 138.816C559.265 136.902 557.286 135.979 555.438 135.979ZM567.605 146.271C564.966 146.271 563.201 144.539 563.201 141.9C563.201 139.179 564.933 137.447 567.555 137.447C570.211 137.447 571.993 139.195 571.993 141.818C571.993 144.556 570.244 146.271 567.605 146.271ZM570.607 141.9C570.607 140.02 569.403 138.766 567.555 138.766C565.757 138.766 564.57 139.937 564.57 141.818C564.57 143.715 565.774 144.968 567.605 144.968C569.403 144.968 570.607 143.797 570.607 141.9ZM581.88 137.694H583.298L578.976 145.941H577.574L573.253 137.694H574.638L578.218 144.622H578.333L581.88 137.694ZM588.98 145.051C590.085 145.051 591.355 144.638 591.916 143.484L592.955 143.979C592.295 145.562 590.679 146.271 588.996 146.271C586.341 146.271 584.576 144.539 584.576 141.9C584.576 139.179 586.308 137.447 588.947 137.447C591.405 137.447 593.219 139.047 593.302 141.422L593.137 142.329C592.147 142.329 587.231 142.296 585.928 142.296C586.11 143.946 587.297 145.051 588.98 145.051ZM588.947 138.684C587.314 138.684 586.159 139.69 585.961 141.273H592.015C592.015 139.64 590.695 138.684 588.947 138.684ZM601.636 138.882C600.284 138.882 597.546 139.723 597.546 141.719V145.941H596.193V137.694H597.381C597.414 138.354 597.447 139.014 597.463 139.673C598.486 138.205 600.317 137.496 601.636 137.496V138.882ZM603.232 141.867C603.232 139.014 605.013 137.48 607.257 137.48C608.642 137.48 609.797 138.04 610.49 139.03C610.523 138.585 610.556 138.139 610.572 137.694H611.859V145.941H610.572L610.506 144.688C609.83 145.694 608.708 146.222 607.405 146.222C605.112 146.222 603.232 144.572 603.232 141.867ZM604.618 141.95C604.618 143.781 605.822 144.968 607.636 144.968C609.104 144.968 610.127 144.143 610.473 142.89C610.539 142.214 610.539 141.521 610.473 140.779C610.143 139.574 609.104 138.766 607.636 138.766C605.805 138.766 604.618 140.003 604.618 141.95ZM619.23 149.587C617.712 149.587 616.261 149.092 615.486 147.789C615.848 147.558 616.178 147.31 616.541 147.08C617.053 147.937 618.174 148.35 619.246 148.35C621.407 148.35 622.018 147.195 622.116 144.589C621.44 145.595 620.302 146.123 618.982 146.123C616.706 146.123 614.842 144.523 614.842 141.867C614.842 139.014 616.607 137.48 618.867 137.48C620.253 137.48 621.44 138.057 622.1 139.03C622.133 138.585 622.166 138.139 622.182 137.694H623.469V145.364C623.469 148.284 621.985 149.587 619.23 149.587ZM616.228 141.95C616.228 143.764 617.498 144.886 619.197 144.886C620.533 144.886 621.622 144.176 622.034 142.939C622.166 142.247 622.133 141.521 622.067 140.779C621.737 139.574 620.714 138.766 619.246 138.766C617.415 138.766 616.228 140.003 616.228 141.95ZM630.855 145.051C631.96 145.051 633.23 144.638 633.791 143.484L634.83 143.979C634.17 145.562 632.554 146.271 630.871 146.271C628.216 146.271 626.451 144.539 626.451 141.9C626.451 139.179 628.183 137.447 630.822 137.447C633.28 137.447 635.094 139.047 635.177 141.422L635.012 142.329C634.022 142.329 629.106 142.296 627.803 142.296C627.985 143.946 629.172 145.051 630.855 145.051ZM630.822 138.684C629.189 138.684 628.034 139.69 627.836 141.273H633.89C633.89 139.64 632.57 138.684 630.822 138.684ZM647.077 145.051C648.182 145.051 649.452 144.638 650.013 143.484L651.052 143.979C650.393 145.562 648.776 146.271 647.094 146.271C644.438 146.271 642.591 144.539 642.591 141.9C642.591 139.36 644.256 137.447 646.846 137.447C648.611 137.447 650.096 138.024 650.871 139.855C650.492 140.036 650.096 140.201 649.716 140.366C649.221 139.129 648.199 138.733 646.962 138.733C645.263 138.733 643.976 139.871 643.976 141.818C643.976 143.715 645.131 145.051 647.077 145.051ZM652.935 141.867C652.935 139.014 654.717 137.48 656.96 137.48C658.345 137.48 659.5 138.04 660.193 139.03C660.226 138.585 660.259 138.139 660.275 137.694H661.562V145.941H660.275L660.209 144.688C659.533 145.694 658.411 146.222 657.108 146.222C654.816 146.222 652.935 144.572 652.935 141.867ZM654.321 141.95C654.321 143.781 655.525 144.968 657.339 144.968C658.807 144.968 659.83 144.143 660.176 142.89C660.242 142.214 660.242 141.521 660.176 140.779C659.846 139.574 658.807 138.766 657.339 138.766C655.508 138.766 654.321 140.003 654.321 141.95ZM666.624 139.459C667.663 137.958 669.098 137.513 670.467 137.513C672.265 137.513 673.684 138.766 673.684 140.696V145.941H672.314V140.877C672.314 139.574 671.242 138.799 670.071 138.799C668.785 138.799 667.382 139.459 666.624 141.174V145.941H665.271V137.694H666.624V139.459ZM682.261 134.972H683.613V142.461C683.613 144.094 684.059 144.671 685.527 144.671H685.791V145.991C685.609 146.007 685.312 146.024 685.098 146.024C683.019 146.024 682.261 144.721 682.261 142.51V134.972ZM687.529 141.867C687.529 139.014 689.31 137.48 691.554 137.48C692.939 137.48 694.094 138.04 694.787 139.03C694.82 138.585 694.853 138.139 694.869 137.694H696.156V145.941H694.869L694.803 144.688C694.127 145.694 693.005 146.222 691.702 146.222C689.409 146.222 687.529 144.572 687.529 141.867ZM688.914 141.95C688.914 143.781 690.119 144.968 691.933 144.968C693.401 144.968 694.424 144.143 694.77 142.89C694.836 142.214 694.836 141.521 694.77 140.779C694.44 139.574 693.401 138.766 691.933 138.766C690.102 138.766 688.914 140.003 688.914 141.95ZM706.885 143.665C706.885 145.414 705.054 146.288 703.107 146.288C701.227 146.288 699.264 145.48 698.769 143.83C699.149 143.649 699.561 143.5 699.94 143.335C700.303 144.506 701.92 145.133 703.322 145.133C704.493 145.133 705.532 144.688 705.532 143.731C705.532 141.471 699.116 143.302 699.116 139.888C699.116 138.205 701.046 137.43 702.893 137.43C704.674 137.43 706.357 138.156 706.885 139.739L705.813 140.168C705.4 138.997 704.147 138.585 702.91 138.585C701.722 138.585 700.452 138.997 700.452 139.822C700.452 141.884 706.885 140.135 706.885 143.665ZM709.981 137.694V134.972H711.334V137.694H713.016V139.03H711.334V142.461C711.334 144.094 711.779 144.671 713.247 144.671H713.511V145.991C713.33 146.007 713.033 146.024 712.818 146.024C710.74 146.024 709.981 144.721 709.981 142.51V139.03H708.827V137.694H709.981ZM727.928 137.694H729.281L723.227 149.422H721.825L723.689 145.826L719.912 137.694H721.363L724.382 144.589H724.398L727.928 137.694ZM734.808 146.271C732.169 146.271 730.404 144.539 730.404 141.9C730.404 139.179 732.136 137.447 734.759 137.447C737.414 137.447 739.196 139.195 739.196 141.818C739.196 144.556 737.447 146.271 734.808 146.271ZM737.81 141.9C737.81 140.02 736.606 138.766 734.759 138.766C732.961 138.766 731.773 139.937 731.773 141.818C731.773 143.715 732.977 144.968 734.808 144.968C736.606 144.968 737.81 143.797 737.81 141.9ZM748.974 144.193C747.935 145.677 746.5 146.123 745.147 146.123C743.349 146.123 741.931 144.869 741.931 142.939V137.694H743.3V142.774C743.3 144.077 744.372 144.853 745.527 144.853C746.83 144.853 748.215 144.193 748.991 142.477V137.694H750.343V145.941H748.974V144.193ZM759.496 138.882C758.143 138.882 755.405 139.723 755.405 141.719V145.941H754.052V137.694H755.24C755.273 138.354 755.306 139.014 755.322 139.673C756.345 138.205 758.176 137.496 759.496 137.496V138.882ZM553.558 168.051C554.663 168.051 555.933 167.638 556.494 166.484L557.533 166.979C556.873 168.562 555.257 169.271 553.574 169.271C550.919 169.271 549.154 167.539 549.154 164.9C549.154 162.179 550.886 160.447 553.525 160.447C555.983 160.447 557.797 162.047 557.88 164.422L557.715 165.329C556.725 165.329 551.81 165.296 550.506 165.296C550.688 166.946 551.876 168.051 553.558 168.051ZM553.525 161.684C551.892 161.684 550.737 162.69 550.539 164.273H556.593C556.593 162.64 555.273 161.684 553.525 161.684ZM562.124 162.459C563.163 160.958 564.598 160.513 565.967 160.513C567.765 160.513 569.184 161.766 569.184 163.696V168.941H567.814V163.877C567.814 162.574 566.742 161.799 565.571 161.799C564.285 161.799 562.882 162.459 562.124 164.174V168.941H560.771V160.694H562.124V162.459ZM572.809 160.694V157.972H574.162V160.694H575.844V162.03H574.162V165.461C574.162 167.094 574.607 167.671 576.075 167.671H576.339V168.991C576.158 169.007 575.861 169.024 575.646 169.024C573.568 169.024 572.809 167.721 572.809 165.51V162.03H571.655V160.694H572.809ZM579.636 159.127C579.025 159.127 578.613 158.715 578.613 158.137C578.613 157.494 579.025 157.098 579.619 157.098C580.213 157.098 580.642 157.527 580.642 158.104C580.642 158.748 580.213 159.127 579.636 159.127ZM578.943 168.941V160.694H580.296V168.941H578.943ZM589.464 161.882C588.112 161.882 585.374 162.723 585.374 164.719V168.941H584.021V160.694H585.209C585.242 161.354 585.275 162.014 585.291 162.673C586.314 161.205 588.145 160.496 589.464 160.496V161.882ZM595.464 168.051C596.569 168.051 597.84 167.638 598.4 166.484L599.44 166.979C598.78 168.562 597.163 169.271 595.481 169.271C592.825 169.271 591.06 167.539 591.06 164.9C591.06 162.179 592.792 160.447 595.431 160.447C597.889 160.447 599.703 162.047 599.786 164.422L599.621 165.329C598.631 165.329 593.716 165.296 592.413 165.296C592.594 166.946 593.782 168.051 595.464 168.051ZM595.431 161.684C593.798 161.684 592.644 162.69 592.446 164.273H598.499C598.499 162.64 597.18 161.684 595.431 161.684ZM607.761 157.972H609.113V165.461C609.113 167.094 609.559 167.671 611.027 167.671H611.291V168.991C611.109 169.007 610.812 169.024 610.598 169.024C608.519 169.024 607.761 167.721 607.761 165.51V157.972ZM614.464 159.127C613.854 159.127 613.441 158.715 613.441 158.137C613.441 157.494 613.854 157.098 614.447 157.098C615.041 157.098 615.47 157.527 615.47 158.104C615.47 158.748 615.041 159.127 614.464 159.127ZM613.771 168.941V160.694H615.124V168.941H613.771ZM619.13 160.694C619.13 158.533 620.103 157.758 622.379 157.642V158.83C621.06 158.946 620.581 159.473 620.499 160.694H621.703V162.03H620.482V168.941H619.13V162.03H617.975V160.694H619.13ZM628.167 168.051C629.273 168.051 630.543 167.638 631.103 166.484L632.143 166.979C631.483 168.562 629.866 169.271 628.184 169.271C625.528 169.271 623.763 167.539 623.763 164.9C623.763 162.179 625.495 160.447 628.134 160.447C630.592 160.447 632.407 162.047 632.489 164.422L632.324 165.329C631.334 165.329 626.419 165.296 625.116 165.296C625.297 166.946 626.485 168.051 628.167 168.051ZM628.134 161.684C626.501 161.684 625.347 162.69 625.149 164.273H631.202C631.202 162.64 629.883 161.684 628.134 161.684Z" fill="black"/>
<g clip-path="url(#clip4_2494_14995)">
<path d="M526.004 253.445C529.298 255.937 532.542 260.265 531.681 263.36C530.819 266.482 525.852 268.423 521.847 269.21C517.818 270.023 514.726 269.708 510.367 268.817C506.007 267.898 500.407 266.403 498.556 262.678C496.681 258.954 498.582 252.999 502.13 250.428C505.653 247.858 510.848 248.671 515.106 249.432C519.389 250.192 522.709 250.927 526.004 253.445Z" fill="#FA7B6A"/>
<g clip-path="url(#clip5_2494_14995)">
<path fill-rule="evenodd" clip-rule="evenodd" d="M520.523 240.18H490.523V259.68H520.523V240.18ZM489.023 238.68V261.18H522.023V238.68H489.023Z" fill="#1C1C1C"/>
<path fill-rule="evenodd" clip-rule="evenodd" d="M520.523 244.68H490.523V247.68H520.523V244.68ZM489.023 243.18V249.18H522.023V243.18H489.023Z" fill="#1C1C1C"/>
<path fill-rule="evenodd" clip-rule="evenodd" d="M494.273 254.43C494.273 255.258 494.945 255.93 495.773 255.93C496.602 255.93 497.273 255.258 497.273 254.43C497.273 253.601 496.602 252.93 495.773 252.93C494.945 252.93 494.273 253.601 494.273 254.43ZM495.773 257.43C494.117 257.43 492.773 256.087 492.773 254.43C492.773 252.773 494.117 251.43 495.773 251.43C497.43 251.43 498.773 252.773 498.773 254.43C498.773 256.087 497.43 257.43 495.773 257.43Z" fill="#1C1C1C"/>
</g>
</g>
<path d="M560.716 228.97V239.939H559.363V234.975H551.627V239.939H550.275V228.97H551.627V233.605H559.363V228.97H560.716ZM565.51 230.125C564.9 230.125 564.487 229.713 564.487 229.135C564.487 228.492 564.9 228.096 565.493 228.096C566.087 228.096 566.516 228.525 566.516 229.102C566.516 229.746 566.087 230.125 565.51 230.125ZM564.817 239.939V231.692H566.17V239.939H564.817ZM573.557 243.585C572.039 243.585 570.588 243.09 569.813 241.787C570.176 241.556 570.505 241.309 570.868 241.078C571.38 241.935 572.501 242.348 573.574 242.348C575.734 242.348 576.345 241.193 576.444 238.587C575.767 239.593 574.629 240.121 573.31 240.121C571.033 240.121 569.169 238.521 569.169 235.865C569.169 233.012 570.934 231.478 573.194 231.478C574.58 231.478 575.767 232.055 576.427 233.028C576.46 232.583 576.493 232.137 576.51 231.692H577.796V239.362C577.796 242.282 576.312 243.585 573.557 243.585ZM570.555 235.948C570.555 237.762 571.825 238.884 573.524 238.884C574.86 238.884 575.949 238.175 576.361 236.937C576.493 236.245 576.46 235.519 576.394 234.777C576.064 233.572 575.042 232.764 573.574 232.764C571.743 232.764 570.555 234.001 570.555 235.948ZM582.873 233.457C583.912 231.972 585.347 231.511 586.716 231.511C588.514 231.511 589.933 232.764 589.933 234.694V239.939H588.563V234.909C588.563 233.605 587.475 232.814 586.304 232.814C585.001 232.814 583.632 233.473 582.873 235.172V239.939H581.52V228.97H582.873V233.457ZM597.073 239.049C598.178 239.049 599.448 238.636 600.009 237.482L601.048 237.977C600.388 239.56 598.772 240.269 597.089 240.269C594.433 240.269 592.669 238.537 592.669 235.898C592.669 233.177 594.4 231.445 597.04 231.445C599.497 231.445 601.312 233.045 601.394 235.42L601.229 236.327C600.24 236.327 595.324 236.294 594.021 236.294C594.203 237.944 595.39 239.049 597.073 239.049ZM597.04 232.682C595.407 232.682 594.252 233.688 594.054 235.271H600.108C600.108 233.638 598.788 232.682 597.04 232.682ZM609.729 232.88C608.377 232.88 605.638 233.721 605.638 235.717V239.939H604.286V231.692H605.473C605.506 232.352 605.539 233.012 605.556 233.671C606.579 232.203 608.41 231.494 609.729 231.494V232.88ZM618.529 233.44C619.42 232.187 620.69 231.544 621.96 231.544C623.428 231.544 624.533 232.253 624.896 233.589C625.803 232.22 627.255 231.511 628.574 231.511C630.372 231.511 631.609 232.682 631.609 234.612V239.939H630.24V234.793C630.24 233.49 629.35 232.797 628.195 232.797C626.974 232.797 625.061 234.084 625.061 235.618V239.939H623.692V234.793C623.692 233.49 622.818 232.797 621.647 232.797C620.442 232.797 619.139 233.655 618.529 235.205V239.939H617.176V231.692H618.529V233.44ZM638.807 240.269C636.168 240.269 634.403 238.537 634.403 235.898C634.403 233.177 636.135 231.445 638.758 231.445C641.413 231.445 643.195 233.193 643.195 235.816C643.195 238.554 641.446 240.269 638.807 240.269ZM641.809 235.898C641.809 234.018 640.605 232.764 638.758 232.764C636.96 232.764 635.772 233.935 635.772 235.816C635.772 237.713 636.976 238.966 638.807 238.966C640.605 238.966 641.809 237.795 641.809 235.898ZM647.513 233.457C648.553 231.956 649.988 231.511 651.357 231.511C653.155 231.511 654.573 232.764 654.573 234.694V239.939H653.204V234.876C653.204 233.572 652.132 232.797 650.961 232.797C649.674 232.797 648.272 233.457 647.513 235.172V239.939H646.161V231.692H647.513V233.457ZM658.199 231.692V228.97H659.552V231.692H661.234V233.028H659.552V236.459C659.552 238.092 659.997 238.669 661.465 238.669H661.729V239.989C661.547 240.005 661.251 240.022 661.036 240.022C658.958 240.022 658.199 238.719 658.199 236.509V233.028H657.044V231.692H658.199ZM665.685 233.457C666.724 231.972 668.159 231.511 669.529 231.511C671.326 231.511 672.745 232.764 672.745 234.694V239.939H671.376V234.909C671.376 233.605 670.287 232.814 669.116 232.814C667.813 232.814 666.444 233.473 665.685 235.172V239.939H664.333V228.97H665.685V233.457ZM676.025 228.97H677.378V236.459C677.378 238.092 677.823 238.669 679.291 238.669H679.555V239.989C679.374 240.005 679.077 240.022 678.862 240.022C676.784 240.022 676.025 238.719 676.025 236.509V228.97ZM688.396 231.692H689.748L683.695 243.42H682.293L684.157 239.824L680.379 231.692H681.831L684.849 238.587H684.866L688.396 231.692ZM549.895 266.42V254.692H551.165L551.248 256.012C551.908 255.005 553.062 254.511 554.497 254.511C556.691 254.511 558.505 255.995 558.505 258.816C558.505 261.587 556.642 263.22 554.365 263.22C553.013 263.22 551.908 262.676 551.248 261.669V266.42H549.895ZM557.136 258.898C557.136 257.018 555.916 255.764 554.085 255.764C552.617 255.764 551.644 256.556 551.297 257.777C551.231 258.469 551.231 259.179 551.297 259.921C551.66 261.142 552.65 261.966 554.118 261.966C555.932 261.966 557.136 260.795 557.136 258.898ZM566.948 255.88C565.595 255.88 562.857 256.721 562.857 258.717V262.939H561.505V254.692H562.692C562.725 255.352 562.758 256.012 562.775 256.671C563.797 255.203 565.628 254.494 566.948 254.494V255.88ZM572.948 262.049C574.053 262.049 575.323 261.636 575.884 260.482L576.923 260.977C576.263 262.56 574.647 263.269 572.964 263.269C570.308 263.269 568.544 261.537 568.544 258.898C568.544 256.177 570.275 254.445 572.915 254.445C575.372 254.445 577.187 256.045 577.269 258.42L577.104 259.327C576.115 259.327 571.199 259.294 569.896 259.294C570.078 260.944 571.265 262.049 572.948 262.049ZM572.915 255.682C571.282 255.682 570.127 256.688 569.929 258.271H575.983C575.983 256.638 574.663 255.682 572.915 255.682ZM581.513 256.44C582.404 255.187 583.674 254.544 584.944 254.544C586.412 254.544 587.517 255.253 587.88 256.589C588.788 255.22 590.239 254.511 591.559 254.511C593.357 254.511 594.594 255.682 594.594 257.612V262.939H593.225V257.793C593.225 256.49 592.334 255.797 591.179 255.797C589.959 255.797 588.045 257.084 588.045 258.618V262.939H586.676V257.793C586.676 256.49 585.802 255.797 584.631 255.797C583.427 255.797 582.124 256.655 581.513 258.205V262.939H580.161V254.692H581.513V256.44ZM598.822 253.125C598.212 253.125 597.8 252.713 597.8 252.135C597.8 251.492 598.212 251.096 598.806 251.096C599.4 251.096 599.829 251.525 599.829 252.102C599.829 252.746 599.4 253.125 598.822 253.125ZM598.13 262.939V254.692H599.482V262.939H598.13ZM610.02 261.191C608.981 262.676 607.546 263.121 606.193 263.121C604.395 263.121 602.977 261.867 602.977 259.937V254.692H604.346V259.772C604.346 261.076 605.418 261.851 606.573 261.851C607.876 261.851 609.261 261.191 610.037 259.476V254.692H611.389V262.939H610.02V261.191ZM616.451 256.44C617.342 255.187 618.612 254.544 619.882 254.544C621.35 254.544 622.455 255.253 622.818 256.589C623.725 255.22 625.177 254.511 626.496 254.511C628.294 254.511 629.531 255.682 629.531 257.612V262.939H628.162V257.793C628.162 256.49 627.271 255.797 626.117 255.797C624.896 255.797 622.983 257.084 622.983 258.618V262.939H621.614V257.793C621.614 256.49 620.74 255.797 619.568 255.797C618.364 255.797 617.061 256.655 616.451 258.205V262.939H615.098V254.692H616.451V256.44ZM640.259 260.663C640.259 262.412 638.428 263.286 636.481 263.286C634.601 263.286 632.638 262.478 632.143 260.828C632.523 260.647 632.935 260.498 633.314 260.333C633.677 261.504 635.294 262.131 636.696 262.131C637.867 262.131 638.906 261.686 638.906 260.729C638.906 258.469 632.49 260.3 632.49 256.886C632.49 255.203 634.42 254.428 636.267 254.428C638.048 254.428 639.731 255.154 640.259 256.737L639.187 257.166C638.774 255.995 637.521 255.583 636.284 255.583C635.096 255.583 633.826 255.995 633.826 256.82C633.826 258.882 640.259 257.133 640.259 260.663Z" fill="black"/>
<path d="M551.628 329.133V333.438H550.276V322.469H556.544C559.661 322.469 561.014 323.674 561.014 325.669C561.014 327.236 559.612 329.084 557.154 329.1L551.628 329.133ZM556.61 323.74C555.438 323.74 552.667 323.772 551.628 323.772V327.764H556.544C558.391 327.764 559.447 326.808 559.447 325.669C559.447 324.449 558.556 323.74 556.61 323.74ZM569.293 326.379C567.94 326.379 565.202 327.22 565.202 329.216V333.438H563.849V325.191H565.037C565.07 325.851 565.103 326.511 565.119 327.17C566.142 325.702 567.973 324.993 569.293 324.993V326.379ZM575.292 332.548C576.398 332.548 577.668 332.135 578.228 330.981L579.268 331.476C578.608 333.059 576.991 333.768 575.309 333.768C572.653 333.768 570.888 332.036 570.888 329.397C570.888 326.676 572.62 324.944 575.259 324.944C577.717 324.944 579.532 326.544 579.614 328.919L579.449 329.826C578.459 329.826 573.544 329.793 572.241 329.793C572.422 331.443 573.61 332.548 575.292 332.548ZM575.259 326.181C573.626 326.181 572.472 327.187 572.274 328.77H578.327C578.327 327.137 577.008 326.181 575.259 326.181ZM583.858 326.94C584.749 325.686 586.019 325.043 587.289 325.043C588.757 325.043 589.862 325.752 590.225 327.088C591.132 325.719 592.584 325.01 593.903 325.01C595.701 325.01 596.939 326.181 596.939 328.111V333.438H595.569V328.292C595.569 326.989 594.679 326.296 593.524 326.296C592.303 326.296 590.39 327.583 590.39 329.117V333.438H589.021V328.292C589.021 326.989 588.147 326.296 586.976 326.296C585.771 326.296 584.468 327.154 583.858 328.704V333.438H582.506V325.191H583.858V326.94ZM601.167 323.624C600.557 323.624 600.144 323.212 600.144 322.634C600.144 321.991 600.557 321.595 601.151 321.595C601.744 321.595 602.173 322.024 602.173 322.601C602.173 323.245 601.744 323.624 601.167 323.624ZM600.474 333.438V325.191H601.827V333.438H600.474ZM612.365 331.69C611.326 333.175 609.891 333.62 608.538 333.62C606.74 333.62 605.321 332.366 605.321 330.436V325.191H606.691V330.271C606.691 331.575 607.763 332.35 608.917 332.35C610.22 332.35 611.606 331.69 612.381 329.975V325.191H613.734V333.438H612.365V331.69ZM618.796 326.94C619.686 325.686 620.956 325.043 622.227 325.043C623.695 325.043 624.8 325.752 625.163 327.088C626.07 325.719 627.521 325.01 628.841 325.01C630.639 325.01 631.876 326.181 631.876 328.111V333.438H630.507V328.292C630.507 326.989 629.616 326.296 628.462 326.296C627.241 326.296 625.328 327.583 625.328 329.117V333.438H623.958V328.292C623.958 326.989 623.084 326.296 621.913 326.296C620.709 326.296 619.406 327.154 618.796 328.704V333.438H617.443V325.191H618.796V326.94ZM642.604 331.162C642.604 332.911 640.773 333.785 638.826 333.785C636.946 333.785 634.983 332.977 634.488 331.327C634.867 331.146 635.28 330.997 635.659 330.832C636.022 332.003 637.639 332.63 639.041 332.63C640.212 332.63 641.251 332.185 641.251 331.228C641.251 328.968 634.834 330.799 634.834 327.385C634.834 325.702 636.764 324.927 638.612 324.927C640.393 324.927 642.076 325.653 642.604 327.236L641.531 327.665C641.119 326.494 639.865 326.082 638.628 326.082C637.441 326.082 636.171 326.494 636.171 327.319C636.171 329.381 642.604 327.632 642.604 331.162ZM650.849 336.919V325.191H652.119L652.202 326.511C652.862 325.504 654.016 325.01 655.451 325.01C657.645 325.01 659.46 326.494 659.46 329.315C659.46 332.086 657.596 333.719 655.319 333.719C653.967 333.719 652.862 333.175 652.202 332.168V336.919H650.849ZM658.091 329.397C658.091 327.517 656.87 326.263 655.039 326.263C653.571 326.263 652.598 327.055 652.251 328.276C652.185 328.968 652.185 329.678 652.251 330.42C652.614 331.641 653.604 332.465 655.072 332.465C656.886 332.465 658.091 331.294 658.091 329.397ZM661.716 329.364C661.716 326.511 663.498 324.977 665.741 324.977C667.127 324.977 668.281 325.537 668.974 326.527C669.007 326.082 669.04 325.636 669.057 325.191H670.343V333.438H669.057L668.991 332.185C668.314 333.191 667.193 333.719 665.89 333.719C663.597 333.719 661.716 332.069 661.716 329.364ZM663.102 329.447C663.102 331.278 664.306 332.465 666.121 332.465C667.589 332.465 668.611 331.641 668.958 330.387C669.024 329.711 669.024 329.018 668.958 328.276C668.628 327.071 667.589 326.263 666.121 326.263C664.29 326.263 663.102 327.5 663.102 329.447ZM680.584 325.191H681.937L675.883 336.919H674.481L676.345 333.323L672.568 325.191H674.019L677.038 332.086H677.054L680.584 325.191ZM689.692 325.191C689.692 323.03 690.665 322.255 692.942 322.14V323.327C691.622 323.443 691.144 323.97 691.061 325.191H692.265V326.527H691.045V333.438H689.692V326.527H688.538V325.191H689.692ZM698.73 333.768C696.091 333.768 694.326 332.036 694.326 329.397C694.326 326.676 696.058 324.944 698.68 324.944C701.336 324.944 703.118 326.692 703.118 329.315C703.118 332.053 701.369 333.768 698.73 333.768ZM701.732 329.397C701.732 327.517 700.528 326.263 698.68 326.263C696.882 326.263 695.695 327.434 695.695 329.315C695.695 331.212 696.899 332.465 698.73 332.465C700.528 332.465 701.732 331.294 701.732 329.397ZM711.527 326.379C710.174 326.379 707.436 327.22 707.436 329.216V333.438H706.084V325.191H707.271C707.304 325.851 707.337 326.511 707.354 327.17C708.376 325.702 710.207 324.993 711.527 324.993V326.379ZM720.327 326.94C721.218 325.686 722.488 325.043 723.758 325.043C725.226 325.043 726.331 325.752 726.694 327.088C727.601 325.719 729.053 325.01 730.372 325.01C732.17 325.01 733.407 326.181 733.407 328.111V333.438H732.038V328.292C732.038 326.989 731.147 326.296 729.993 326.296C728.772 326.296 726.859 327.583 726.859 329.117V333.438H725.49V328.292C725.49 326.989 724.616 326.296 723.444 326.296C722.24 326.296 720.937 327.154 720.327 328.704V333.438H718.974V325.191H720.327V326.94ZM740.605 333.768C737.966 333.768 736.201 332.036 736.201 329.397C736.201 326.676 737.933 324.944 740.555 324.944C743.211 324.944 744.993 326.692 744.993 329.315C744.993 332.053 743.244 333.768 740.605 333.768ZM743.607 329.397C743.607 327.517 742.403 326.263 740.555 326.263C738.757 326.263 737.57 327.434 737.57 329.315C737.57 331.212 738.774 332.465 740.605 332.465C742.403 332.465 743.607 331.294 743.607 329.397ZM753.402 326.379C752.049 326.379 749.311 327.22 749.311 329.216V333.438H747.959V325.191H749.146C749.179 325.851 749.212 326.511 749.229 327.17C750.251 325.702 752.082 324.993 753.402 324.993V326.379ZM759.402 332.548C760.507 332.548 761.777 332.135 762.338 330.981L763.377 331.476C762.717 333.059 761.101 333.768 759.418 333.768C756.763 333.768 754.998 332.036 754.998 329.397C754.998 326.676 756.73 324.944 759.369 324.944C761.826 324.944 763.641 326.544 763.723 328.919L763.558 329.826C762.569 329.826 757.653 329.793 756.35 329.793C756.532 331.443 757.719 332.548 759.402 332.548ZM759.369 326.181C757.736 326.181 756.581 327.187 756.383 328.77H762.437C762.437 327.137 761.117 326.181 759.369 326.181ZM550.028 348.191V345.469H551.381V348.191H553.063V349.527H551.381V352.958C551.381 354.591 551.826 355.168 553.294 355.168H553.558V356.488C553.377 356.504 553.08 356.521 552.865 356.521C550.787 356.521 550.028 355.218 550.028 353.008V349.527H548.873V348.191H550.028ZM557.514 349.956C558.554 348.471 559.989 348.01 561.358 348.01C563.156 348.01 564.574 349.263 564.574 351.193V356.438H563.205V351.408C563.205 350.104 562.116 349.313 560.945 349.313C559.642 349.313 558.273 349.972 557.514 351.671V356.438H556.162V345.469H557.514V349.956ZM567.31 352.364C567.31 349.511 569.092 347.977 571.335 347.977C572.72 347.977 573.875 348.537 574.568 349.527C574.601 349.082 574.634 348.636 574.65 348.191H575.937V356.438H574.65L574.584 355.185C573.908 356.191 572.786 356.719 571.483 356.719C569.191 356.719 567.31 355.069 567.31 352.364ZM568.696 352.447C568.696 354.278 569.9 355.465 571.714 355.465C573.182 355.465 574.205 354.641 574.551 353.387C574.617 352.711 574.617 352.018 574.551 351.276C574.221 350.071 573.182 349.263 571.714 349.263C569.883 349.263 568.696 350.5 568.696 352.447ZM580.999 349.956C582.038 348.455 583.473 348.01 584.842 348.01C586.64 348.01 588.059 349.263 588.059 351.193V356.438H586.689V351.375C586.689 350.071 585.617 349.296 584.446 349.296C583.16 349.296 581.757 349.956 580.999 351.671V356.438H579.646V348.191H580.999V349.956ZM597.477 346.624C596.883 346.624 596.454 346.212 596.454 345.634C596.454 344.991 596.883 344.595 597.46 344.595C598.071 344.595 598.483 345.024 598.483 345.601C598.483 346.245 598.071 346.624 597.477 346.624ZM598.17 355.861C598.17 358.665 596.834 359.968 594.161 360.001V358.682C595.943 358.632 596.817 357.676 596.817 355.515V348.191H598.186L598.17 355.861ZM608.709 354.69C607.669 356.175 606.234 356.62 604.882 356.62C603.084 356.62 601.665 355.366 601.665 353.436V348.191H603.034V353.271C603.034 354.575 604.106 355.35 605.261 355.35C606.564 355.35 607.95 354.69 608.725 352.975V348.191H610.078V356.438H608.709V354.69ZM620.807 354.162C620.807 355.911 618.976 356.785 617.029 356.785C615.149 356.785 613.186 355.977 612.691 354.327C613.071 354.146 613.483 353.997 613.862 353.832C614.225 355.003 615.842 355.63 617.244 355.63C618.415 355.63 619.454 355.185 619.454 354.228C619.454 351.968 613.038 353.799 613.038 350.385C613.038 348.702 614.967 347.927 616.815 347.927C618.596 347.927 620.279 348.653 620.807 350.236L619.734 350.665C619.322 349.494 618.069 349.082 616.831 349.082C615.644 349.082 614.374 349.494 614.374 350.319C614.374 352.381 620.807 350.632 620.807 354.162ZM623.903 348.191V345.469H625.256V348.191H626.938V349.527H625.256V352.958C625.256 354.591 625.701 355.168 627.169 355.168H627.433V356.488C627.252 356.504 626.955 356.521 626.74 356.521C624.662 356.521 623.903 355.218 623.903 353.008V349.527H622.748V348.191H623.903ZM639.046 355.548C640.151 355.548 641.421 355.135 641.982 353.981L643.021 354.476C642.361 356.059 640.745 356.768 639.062 356.768C636.407 356.768 634.559 355.036 634.559 352.397C634.559 349.857 636.225 347.944 638.815 347.944C640.58 347.944 642.064 348.521 642.84 350.352C642.46 350.533 642.064 350.698 641.685 350.863C641.19 349.626 640.168 349.23 638.93 349.23C637.231 349.23 635.945 350.368 635.945 352.315C635.945 354.212 637.099 355.548 639.046 355.548ZM649.308 356.768C646.669 356.768 644.904 355.036 644.904 352.397C644.904 349.676 646.636 347.944 649.259 347.944C651.914 347.944 653.696 349.692 653.696 352.315C653.696 355.053 651.947 356.768 649.308 356.768ZM652.31 352.397C652.31 350.517 651.106 349.263 649.259 349.263C647.461 349.263 646.273 350.434 646.273 352.315C646.273 354.212 647.477 355.465 649.308 355.465C651.106 355.465 652.31 354.294 652.31 352.397ZM663.583 348.191H665.001L660.68 356.438H659.278L654.956 348.191H656.341L659.921 355.119H660.036L663.583 348.191ZM670.683 355.548C671.788 355.548 673.058 355.135 673.619 353.981L674.658 354.476C673.998 356.059 672.382 356.768 670.699 356.768C668.044 356.768 666.279 355.036 666.279 352.397C666.279 349.676 668.011 347.944 670.65 347.944C673.108 347.944 674.922 349.544 675.005 351.919L674.84 352.826C673.85 352.826 668.935 352.793 667.631 352.793C667.813 354.443 669.001 355.548 670.683 355.548ZM670.65 349.181C669.017 349.181 667.862 350.187 667.664 351.77H673.718C673.718 350.137 672.398 349.181 670.65 349.181ZM683.339 349.379C681.987 349.379 679.249 350.22 679.249 352.216V356.438H677.896V348.191H679.084C679.117 348.851 679.15 349.511 679.166 350.17C680.189 348.702 682.02 347.993 683.339 347.993V349.379ZM684.935 352.364C684.935 349.511 686.717 347.977 688.96 347.977C690.345 347.977 691.5 348.537 692.193 349.527C692.226 349.082 692.259 348.636 692.275 348.191H693.562V356.438H692.275L692.209 355.185C691.533 356.191 690.411 356.719 689.108 356.719C686.816 356.719 684.935 355.069 684.935 352.364ZM686.321 352.447C686.321 354.278 687.525 355.465 689.339 355.465C690.807 355.465 691.83 354.641 692.176 353.387C692.242 352.711 692.242 352.018 692.176 351.276C691.846 350.071 690.807 349.263 689.339 349.263C687.508 349.263 686.321 350.5 686.321 352.447ZM700.933 360.084C699.415 360.084 697.964 359.589 697.189 358.286C697.552 358.055 697.881 357.808 698.244 357.577C698.756 358.434 699.877 358.847 700.949 358.847C703.11 358.847 703.721 357.692 703.82 355.086C703.143 356.092 702.005 356.62 700.686 356.62C698.409 356.62 696.545 355.02 696.545 352.364C696.545 349.511 698.31 347.977 700.57 347.977C701.956 347.977 703.143 348.554 703.803 349.527C703.836 349.082 703.869 348.636 703.886 348.191H705.172V355.861C705.172 358.781 703.688 360.084 700.933 360.084ZM697.931 352.447C697.931 354.261 699.201 355.383 700.9 355.383C702.236 355.383 703.325 354.674 703.737 353.436C703.869 352.744 703.836 352.018 703.77 351.276C703.44 350.071 702.418 349.263 700.949 349.263C699.119 349.263 697.931 350.5 697.931 352.447ZM712.558 355.548C713.663 355.548 714.933 355.135 715.494 353.981L716.533 354.476C715.873 356.059 714.257 356.768 712.574 356.768C709.919 356.768 708.154 355.036 708.154 352.397C708.154 349.676 709.886 347.944 712.525 347.944C714.983 347.944 716.797 349.544 716.88 351.919L716.715 352.826C715.725 352.826 710.81 352.793 709.506 352.793C709.688 354.443 710.876 355.548 712.558 355.548ZM712.525 349.181C710.892 349.181 709.737 350.187 709.539 351.77H715.593C715.593 350.137 714.273 349.181 712.525 349.181Z" fill="black"/>
<g clip-path="url(#clip6_2494_14995)">
<path d="M317.741 151.604C320.476 156.285 321.154 161.603 319.401 165.009C317.648 168.44 313.488 169.96 309.561 171.896C305.635 173.832 301.942 176.209 297.898 175.621C293.832 175.033 289.391 171.455 289.368 167.828C289.321 164.201 293.691 160.524 297.08 155.672C300.493 150.82 302.97 144.84 306.593 143.86C310.216 142.879 315.007 146.923 317.741 151.604Z" fill="#FA7B6A"/>
<path fill-rule="evenodd" clip-rule="evenodd" d="M278.617 148.962H313.117V168.462H278.617V148.962ZM280.117 150.462V166.962H311.617V150.462H280.117Z" fill="#1C1C1C"/>
<path fill-rule="evenodd" clip-rule="evenodd" d="M295.867 135.462C292.288 135.462 288.519 137.149 286.487 140.134C285.05 142.246 284.662 145.033 284.621 148.962H307.113C307.064 145.118 306.623 142.227 305.24 140.124C303.218 137.046 299.522 135.462 295.867 135.462ZM285.247 139.29C287.603 135.829 291.877 133.962 295.867 133.962C299.91 133.962 304.136 135.711 306.494 139.3C308.23 141.942 308.617 145.479 308.617 149.712V150.462H283.117V149.712C283.117 145.395 283.434 141.954 285.247 139.29Z" fill="#1C1C1C"/>
</g>
<path d="M533.051 345.397C535.033 350.907 533.072 358.26 528.502 361.367C523.954 364.495 516.817 363.356 511.705 359.627C506.593 355.92 503.484 349.581 505.07 344.631C506.635 339.701 512.895 336.139 519.008 336.18C525.101 336.221 531.069 339.888 533.051 345.397Z" fill="#FA7B6A"/>
<path fill-rule="evenodd" clip-rule="evenodd" d="M504.77 336.013C505.677 335.442 506.995 335.104 508.742 335.104C510.507 335.104 511.855 335.485 512.789 336.064C513.7 336.628 514.29 337.441 514.29 338.284H512.728C512.728 338.127 512.587 337.724 511.941 337.324C511.317 336.937 510.282 336.604 508.742 336.604C507.184 336.604 506.197 336.908 505.627 337.267C505.067 337.619 504.915 338.009 504.915 338.284C504.915 338.887 504.942 339.294 505.272 339.622C505.619 339.967 506.493 340.394 508.742 340.394C511.192 340.394 512.654 340.864 513.474 341.676C514.292 342.486 514.291 343.468 514.29 343.967C514.29 343.98 514.29 343.992 514.29 344.004C514.29 344.632 514.11 345.606 513.244 346.417C512.38 347.227 510.959 347.756 508.742 347.756C506.555 347.756 505.177 347.312 504.345 346.601C503.489 345.87 503.353 344.98 503.353 344.433L504.915 344.433C504.915 344.743 504.985 345.14 505.384 345.481C505.808 345.843 506.734 346.256 508.742 346.256C510.719 346.256 511.682 345.785 512.153 345.344C512.622 344.904 512.728 344.376 512.728 344.004C512.728 343.489 512.706 343.071 512.352 342.721C511.981 342.353 511.059 341.894 508.742 341.894C506.383 341.894 504.953 341.463 504.148 340.664C503.35 339.872 503.352 338.886 503.353 338.334C503.353 338.317 503.353 338.3 503.353 338.284C503.353 337.416 503.852 336.59 504.77 336.013Z" fill="#1C1C1C"/>
<path fill-rule="evenodd" clip-rule="evenodd" d="M508.269 335.71V333.18H509.831V335.71H508.269Z" fill="#1C1C1C"/>
<path fill-rule="evenodd" clip-rule="evenodd" d="M508.269 349.68V347.149H509.831V349.68H508.269Z" fill="#1C1C1C"/>
<path fill-rule="evenodd" clip-rule="evenodd" d="M523.665 340.68C523.665 332.81 517.019 326.43 508.821 326.43V324.93C517.882 324.93 525.228 331.981 525.228 340.68C525.228 349.378 517.882 356.43 508.821 356.43C499.76 356.43 492.415 349.378 492.415 340.68C492.415 336.591 494.039 332.865 496.7 330.065L497.854 331.077C495.446 333.61 493.978 336.98 493.978 340.68C493.978 348.55 500.623 354.93 508.821 354.93C517.019 354.93 523.665 348.55 523.665 340.68Z" fill="#1C1C1C"/>
<path fill-rule="evenodd" clip-rule="evenodd" d="M509.938 325.825L512.732 323.204L511.614 322.155L507.703 325.825L511.614 329.495L512.732 328.447L509.938 325.825Z" fill="#1C1C1C"/>
<defs>
<clipPath id="clip0_2494_14995">
<rect width="48" height="48" fill="white" transform="translate(483.821 127.682)"/>
</clipPath>
<clipPath id="clip1_2494_14995">
<rect width="48" height="48" fill="white" transform="translate(271.867 315.429)"/>
</clipPath>
<clipPath id="clip2_2494_14995">
<rect width="48" height="48" fill="white" transform="translate(271.867 221.68)"/>
</clipPath>
<clipPath id="clip3_2494_14995">
<rect width="48" height="48" fill="white" transform="translate(271.367 221.68)"/>
</clipPath>
<clipPath id="clip4_2494_14995">
<rect width="48" height="48" fill="white" transform="translate(483.821 221.68)"/>
</clipPath>
<clipPath id="clip5_2494_14995">
<rect width="33" height="23" fill="white" transform="translate(489.023 238.18)"/>
</clipPath>
<clipPath id="clip6_2494_14995">
<rect width="48" height="48" fill="white" transform="translate(272.367 127.712)"/>
</clipPath>
</defs>
</svg>
